<svg width="644" height="475" viewBox="0 0 644 475" fill="none" xmlns="http://www.w3.org/2000/svg">
<path d="M70.867 123.373H570.236" stroke="#DED8D5" stroke-width="1.9678" stroke-miterlimit="10"/>
<path d="M563.714 399.603H77.388C73.786 399.603 70.867 396.683 70.867 393.082V97.159C70.867 93.557 73.787 90.638 77.388 90.638H563.714C567.316 90.638 570.235 93.558 570.235 97.159V393.081C570.236 396.683 567.316 399.603 563.714 399.603Z" stroke="#DED8D5" stroke-width="1.9678" stroke-miterlimit="10"/>
<path d="M99.209 111.908C101.732 111.908 103.777 109.863 103.777 107.34C103.777 104.817 101.732 102.772 99.209 102.772C96.6862 102.772 94.641 104.817 94.641 107.34C94.641 109.863 96.6862 111.908 99.209 111.908Z" fill="#FFB1A5"/>
<path d="M116.962 111.908C119.485 111.908 121.53 109.863 121.53 107.34C121.53 104.817 119.485 102.772 116.962 102.772C114.439 102.772 112.394 104.817 112.394 107.34C112.394 109.863 114.439 111.908 116.962 111.908Z" fill="#EAD254"/>
<path d="M134.714 111.908C137.237 111.908 139.282 109.863 139.282 107.34C139.282 104.817 137.237 102.772 134.714 102.772C132.191 102.772 130.146 104.817 130.146 107.34C130.146 109.863 132.191 111.908 134.714 111.908Z" fill="#00857B"/>
<path d="M635.108 233.632H517.746C514.436 233.632 511.755 230.949 511.755 227.641V119.099C511.755 115.79 514.437 113.108 517.746 113.108H635.107C638.416 113.108 641.098 115.79 641.098 119.099V227.641C641.099 230.949 638.416 233.632 635.108 233.632Z" fill="#EDEDED"/>
<path d="M635.108 233.632H517.746C514.436 233.632 511.755 230.949 511.755 227.641V119.099C511.755 115.79 514.437 113.108 517.746 113.108H635.107C638.416 113.108 641.098 115.79 641.098 119.099V227.641C641.099 230.949 638.416 233.632 635.108 233.632Z" stroke="#DED8D5" stroke-width="1.9678" stroke-miterlimit="10"/>
<path d="M546.119 202.279H607.118C610.443 202.279 613.139 199.583 613.139 196.258V146.267C613.139 142.941 610.443 140.246 607.118 140.246H546.119C542.794 140.246 540.098 142.942 540.098 146.267V196.258C540.098 199.583 542.794 202.279 546.119 202.279Z" fill="#C98BD2"/>
<path d="M593.281 181.576H564.73H559.574V158.971H593.281V164.622V181.576Z" stroke="white" stroke-width="1.6466" stroke-miterlimit="10" stroke-linecap="round" stroke-linejoin="round"/>
<path d="M559.574 158.971L576.427 172.253L593.281 158.971" stroke="white" stroke-width="1.6466" stroke-miterlimit="10" stroke-linecap="round" stroke-linejoin="round"/>
<path d="M118.64 324.52H6.714C3.558 324.52 1 321.961 1 318.806V221.222C1 218.067 3.558 215.509 6.714 215.509H118.64C121.795 215.509 124.353 218.067 124.353 221.222V318.806C124.353 321.962 121.795 324.52 118.64 324.52Z" fill="#EDEDED"/>
<path d="M118.64 324.52H6.714C3.558 324.52 1 321.961 1 318.806V221.222C1 218.067 3.558 215.509 6.714 215.509H118.64C121.795 215.509 124.353 218.067 124.353 221.222V318.806C124.353 321.962 121.795 324.52 118.64 324.52Z" stroke="#DED8D5" stroke-width="1.9678" stroke-miterlimit="10"/>
<path d="M91.411 303.518H33.362C29.695 303.518 26.722 300.545 26.722 296.878V240.817C26.722 237.15 29.695 234.178 33.362 234.178H91.411C95.078 234.178 98.051 237.15 98.051 240.817V296.878C98.05 300.546 95.078 303.518 91.411 303.518Z" fill="#FFB1A5"/>
<path d="M48.561 255.236C40.729 263.068 40.729 275.924 48.561 283.757C56.393 291.589 69.249 291.589 77.081 283.757C84.913 275.925 84.913 263.069 77.081 255.236C69.249 247.404 56.393 247.404 48.561 255.236ZM77.035 258.14H70.608C69.963 256.121 69.133 254.102 68.109 252.083C71.669 253.164 74.767 255.305 77.035 258.14ZM55.416 268.317C55.419 265.711 55.727 263.104 56.372 260.499H69.272C69.917 263.104 70.224 265.711 70.227 268.317H55.416ZM70.147 270.675C69.969 273.28 69.497 275.887 68.761 278.493H56.88C56.144 275.888 55.672 273.281 55.494 270.675H70.147ZM62.821 251.302C63.791 251.302 64.742 251.378 65.67 251.524C66.906 253.73 67.874 255.935 68.594 258.14H57.048C57.768 255.935 58.736 253.73 59.972 251.524C60.9 251.379 61.852 251.302 62.821 251.302ZM57.534 252.084C56.51 254.103 55.68 256.122 55.035 258.141H48.608C50.875 255.305 53.973 253.164 57.534 252.084ZM47.005 260.499H54.366C53.72 263.104 53.382 265.711 53.335 268.317H44.666C44.848 265.486 45.676 262.831 47.005 260.499ZM47.005 278.494C45.675 276.162 44.847 273.507 44.666 270.676H53.371C53.498 273.281 53.912 275.888 54.599 278.494H47.005ZM48.608 280.852H55.296C55.963 282.895 56.793 284.939 57.781 286.982C54.117 285.927 50.928 283.753 48.608 280.852ZM62.821 287.69C62.013 287.69 61.217 287.637 60.438 287.535C59.326 285.307 58.379 283.08 57.618 280.852H68.025C67.263 283.08 66.316 285.307 65.205 287.535C64.425 287.637 63.629 287.69 62.821 287.69ZM67.862 286.982C68.851 284.939 69.681 282.896 70.347 280.852H77.035C74.715 283.753 71.526 285.927 67.862 286.982ZM78.637 278.494H71.043C71.73 275.888 72.144 273.282 72.271 270.676H80.976C80.795 273.507 79.967 276.161 78.637 278.494ZM80.976 268.317H72.307C72.26 265.711 71.921 263.104 71.276 260.499H78.637C79.967 262.831 80.794 265.486 80.976 268.317Z" fill="white"/>
<path d="M111.969 62.127H10.57C8.47501 62.127 6.77701 60.429 6.77701 58.334C6.77701 56.239 8.47501 54.541 10.57 54.541H111.968C114.063 54.541 115.761 56.239 115.761 58.334C115.762 60.429 114.064 62.127 111.969 62.127Z" fill="#C98BD2"/>
<path d="M639.24 309.811H590.025C587.93 309.811 586.232 308.113 586.232 306.018C586.232 303.923 587.93 302.225 590.025 302.225H639.24C641.335 302.225 643.033 303.923 643.033 306.018C643.033 308.113 641.334 309.811 639.24 309.811Z" fill="#56DFED"/>
<path d="M604.771 353.688H598.757C597.177 353.688 595.896 352.407 595.896 350.827V345.181C595.896 343.601 597.177 342.32 598.757 342.32H604.771C606.351 342.32 607.632 343.601 607.632 345.181V350.827C607.632 352.407 606.351 353.688 604.771 353.688Z" fill="#C98BD2"/>
<path d="M34.723 379.966H28.709C27.129 379.966 25.848 378.685 25.848 377.105V371.459C25.848 369.879 27.129 368.598 28.709 368.598H34.723C36.303 368.598 37.584 369.879 37.584 371.459V377.105C37.585 378.685 36.304 379.966 34.723 379.966Z" fill="#FFB1A5"/>
<path d="M494.998 58.209H394.915C393.251 58.209 391.902 56.86 391.902 55.197V30.761C391.902 29.098 393.251 27.749 394.915 27.749H494.998C496.662 27.749 498.01 29.098 498.01 30.761V55.197C498.01 56.861 496.662 58.209 494.998 58.209Z" fill="#FFB1A5"/>
<path d="M406.356 38.603H477.534" stroke="white" stroke-width="1.1803" stroke-miterlimit="10"/>
<path d="M406.356 45.908H435.347" stroke="white" stroke-width="1.1803" stroke-miterlimit="10"/>
<path d="M403.46 54.763V66.634L418.39 54.763H403.46Z" fill="#FFB1A5"/>
<path d="M249.105 60.021H200.657C195.951 60.021 192.136 56.206 192.136 51.5V6.459C192.136 2.892 195.028 0 198.595 0H249.104C252.671 0 255.563 2.892 255.563 6.459V53.562C255.565 57.129 252.673 60.021 249.105 60.021Z" fill="#56DFED"/>
<path d="M238.653 34.448L235.041 30.837C234.396 30.128 233.558 29.74 232.719 29.74C231.88 29.74 231.042 30.127 230.397 30.772L228.333 32.836C228.204 32.772 228.075 32.707 227.946 32.643C227.688 32.514 227.494 32.45 227.301 32.321C225.366 31.095 223.625 29.483 221.948 27.419C221.174 26.452 220.594 25.549 220.271 24.775C220.787 24.323 221.238 23.807 221.69 23.356C221.883 23.163 222.077 22.969 222.27 22.775C222.979 22.066 223.367 21.227 223.367 20.389C223.367 19.551 222.98 18.712 222.27 18.003L220.464 16.197C220.271 16.004 220.077 15.81 219.883 15.552C219.496 15.165 219.045 14.714 218.658 14.326C218.013 13.681 217.175 13.294 216.336 13.294C215.497 13.294 214.724 13.616 214.014 14.326L211.757 16.583C210.919 17.421 210.403 18.518 210.274 19.743C210.145 21.678 210.661 23.484 211.112 24.645C212.144 27.611 213.756 30.256 216.142 33.094C219.044 36.512 222.463 39.221 226.461 41.156C227.944 41.865 230.008 42.704 232.266 42.897C232.395 42.897 232.524 42.897 232.717 42.897C234.265 42.897 235.555 42.317 236.587 41.22C236.587 41.22 236.587 41.22 236.651 41.156C236.974 40.769 237.36 40.382 237.812 39.995C238.07 39.737 238.392 39.414 238.65 39.157C240.007 37.738 240.007 35.803 238.653 34.448ZM237.169 37.802C236.911 38.06 236.653 38.318 236.395 38.576C235.943 38.963 235.557 39.414 235.105 39.866C234.46 40.511 233.751 40.834 232.783 40.834C232.654 40.834 232.59 40.834 232.461 40.834C230.526 40.705 228.72 39.931 227.43 39.286C223.754 37.48 220.529 34.965 217.821 31.74C215.628 29.095 214.145 26.58 213.113 23.936C212.468 22.388 212.21 21.163 212.34 19.937C212.404 19.228 212.662 18.583 213.243 18.067L215.436 15.874C215.629 15.681 215.952 15.423 216.339 15.423C216.726 15.423 216.984 15.616 217.242 15.874C217.629 16.261 218.016 16.648 218.403 17.035C218.597 17.229 218.79 17.487 219.048 17.68L220.854 19.486C221.047 19.679 221.305 20.067 221.305 20.389C221.305 20.776 221.047 21.098 220.854 21.292C220.66 21.486 220.467 21.679 220.273 21.873C219.692 22.454 219.176 22.969 218.661 23.485C218.661 23.485 218.661 23.485 218.597 23.549C217.952 24.194 218.081 24.775 218.21 25.161V25.225C218.662 26.386 219.371 27.418 220.338 28.708C222.144 30.965 224.079 32.707 226.207 34.061C226.465 34.254 226.787 34.383 227.045 34.512C227.303 34.641 227.496 34.706 227.69 34.835L227.754 34.899C228.399 35.221 229.044 35.092 229.56 34.577L231.817 32.32C232.01 32.126 232.333 31.868 232.72 31.868C233.042 31.868 233.365 32.126 233.558 32.32L237.17 35.931C237.75 36.512 237.75 37.157 237.169 37.802Z" fill="white"/>
<path d="M459.853 287.277L423.351 282.417L423.636 286.042L392.427 290.197C392.427 290.197 372.311 340.667 390.04 451.662H415.427L424.564 339.113H427.809L436.659 451.662H462.045C479.775 340.667 459.853 287.277 459.853 287.277Z" fill="#8E716C"/>
<path d="M412.956 339.113H439.444" stroke="#282828" stroke-width="1.2333" stroke-miterlimit="10" stroke-linecap="round" stroke-linejoin="round"/>
<path d="M481.169 234.036C478.046 229.052 460.504 229.227 459.578 229.119C454.836 228.563 462.619 266.3 472.484 299.286C474.375 305.61 481.334 308.904 487.411 306.327C487.476 306.3 487.542 306.271 487.608 306.244C492.415 304.207 495.151 299.103 494.183 293.973C489.493 269.082 484.781 239.799 481.169 234.036Z" fill="#FFB1A5"/>
<path d="M485.35 247.681L462.953 256.372L460.854 245.746L484.045 239.961L485.35 247.681Z" fill="#F3978E"/>
<path d="M489.58 268.94C489.58 268.94 478.97 283.189 479.476 282.534C479.982 281.879 487.796 259.507 487.796 259.507L489.58 268.94Z" fill="#F3978E"/>
<path d="M504.75 249.788L474.338 289.191C470.345 294.364 471.62 301.844 477.102 305.403C482.575 308.955 489.914 307.088 493.022 301.352L518.336 254.647L504.75 249.788Z" fill="#FFB1A5"/>
<path d="M516.478 260.513C523.406 260.513 529.023 254.896 529.023 247.968C529.023 241.04 523.406 235.423 516.478 235.423C509.55 235.423 503.933 241.04 503.933 247.968C503.933 254.896 509.55 260.513 516.478 260.513Z" fill="#FFB1A5"/>
<path d="M525.624 240.427C525.624 240.427 529.058 236.863 522.967 234.364C516.877 231.866 509.347 232.439 504.54 244.112L525.624 240.427Z" fill="#FFB1A5"/>
<path d="M531.934 215.526L544.668 221.047C545.376 221.355 545.634 222.194 545.243 222.924L528.492 254.214C528.101 254.943 527.211 255.285 526.503 254.978L513.769 249.457C513.06 249.149 512.803 248.31 513.193 247.581L529.945 216.29C530.335 215.561 531.226 215.219 531.934 215.526Z" fill="#372F5F"/>
<path d="M530.718 214.972L543.451 220.493C544.16 220.801 544.418 221.64 544.027 222.369L527.275 253.659C526.885 254.388 525.995 254.73 525.286 254.424L512.553 248.903C511.844 248.596 511.586 247.757 511.977 247.027L528.729 215.737C529.119 215.007 530.009 214.665 530.718 214.972Z" fill="#261B43"/>
<path d="M529.282 218.156L540.47 223.008L526.818 248.508L515.629 243.658L529.282 218.156Z" fill="#E6E6E6"/>
<path d="M540.47 223.008L515.629 243.658L529.282 218.156L540.47 223.008Z" fill="white"/>
<path d="M519.312 233.326C519.312 233.326 522.147 233.879 524.706 235.329C525.834 235.968 526.411 237.268 526.099 238.526C525.814 239.672 524.853 240.525 523.681 240.673L517.061 241.508C517.061 241.508 513.607 247.461 509.094 248.129L513.234 237.677L519.312 233.326Z" fill="#FFB1A5"/>
<path d="M434.767 184.416C434.037 184.412 481.713 191.013 489.58 245.371L464.84 249.161L459.853 290.197H390.836L377.134 214.378C377.134 214.378 392.425 192.464 420.816 184.416H434.767Z" fill="#56DFED"/>
<path d="M464.84 249.161L466.988 225.427" stroke="#282828" stroke-width="1.2333" stroke-miterlimit="10" stroke-linecap="round" stroke-linejoin="round"/>
<path d="M439.298 185.193V166.312H417.172V185.415C416.04 185.753 414.154 186.436 411.228 187.826L428.485 198.106L446.128 187.826C446.127 187.825 443.327 186.196 439.298 185.193Z" fill="#FFB1A5"/>
<path d="M416.967 168.619C416.967 168.619 420.941 179.17 431.548 178.259C441.298 177.422 439.746 162.8 439.746 162.8L416.967 168.619Z" fill="#282828"/>
<path d="M407.318 154.586C403.849 157.732 396.094 145.8 399.446 142.45C402.797 139.1 405.353 144.356 405.353 144.356L406.849 147.918L407.978 152.742L408.246 154.005L407.318 154.586Z" fill="#F3978E"/>
<path d="M401.065 146.677C401.065 146.677 403.69 145.496 406.022 149.302" stroke="#282828" stroke-width="0.9928" stroke-miterlimit="10" stroke-linecap="round" stroke-linejoin="round"/>
<path d="M448.33 154.224C451.52 157.652 460.256 146.419 457.2 142.797C454.144 139.176 451.153 144.196 451.153 144.196L449.361 147.618L447.828 152.329L447.454 153.565L448.33 154.224Z" fill="#F3978E"/>
<path d="M455.23 146.872C455.23 146.872 452.714 145.474 450.068 149.068" stroke="#282828" stroke-width="0.9928" stroke-miterlimit="10" stroke-linecap="round" stroke-linejoin="round"/>
<path d="M401.235 131.069C401.235 146.863 413.277 154.353 428.131 154.353C442.985 154.353 455.027 146.864 455.027 131.069C455.027 115.274 442.985 104.53 428.131 104.53C413.277 104.529 401.235 115.274 401.235 131.069Z" fill="#282828"/>
<path d="M404.89 132.167C404.89 141.863 406.26 150.23 407.627 156.168C408.966 161.982 412.733 166.045 418.058 169.315L419.028 169.911C424.662 173.371 431.94 173.452 437.66 170.117C443.429 166.754 447.468 162.32 448.711 156.081C450.972 144.734 451.219 132.166 451.219 132.166C451.219 132.166 453.37 107.689 428.386 108.165C403.4 108.642 404.89 132.167 404.89 132.167Z" fill="#FFB1A5"/>
<path d="M426.538 146.136V149.523C426.538 149.724 426.576 149.916 426.647 150.092C426.924 150.784 427.723 151.116 428.446 150.924L429.999 150.512" stroke="#282828" stroke-width="1.2316" stroke-miterlimit="10" stroke-linecap="round" stroke-linejoin="round"/>
<path d="M422.566 133.002L410.149 135.912C410.149 135.912 410.713 132.752 415.793 131.603C420.872 130.455 422.566 133.002 422.566 133.002Z" fill="#282828"/>
<path d="M433.586 133.002L445.575 135.912C445.575 135.912 445.03 132.752 440.125 131.603C435.221 130.455 433.586 133.002 433.586 133.002Z" fill="#282828"/>
<path d="M417.848 144.211C419.004 144.211 419.942 143.276 419.942 142.123C419.942 140.97 419.004 140.035 417.848 140.035C416.692 140.035 415.754 140.97 415.754 142.123C415.754 143.276 416.692 144.211 417.848 144.211Z" fill="#282828"/>
<path d="M437.7 144.211C438.856 144.211 439.794 143.276 439.794 142.123C439.794 140.97 438.856 140.035 437.7 140.035C436.543 140.035 435.606 140.97 435.606 142.123C435.606 143.276 436.543 144.211 437.7 144.211Z" fill="#282828"/>
<path d="M419.942 154.866H436.09C436.09 154.866 428.933 163.573 419.942 154.866Z" fill="white"/>
<path d="M416.967 151.839C421.885 151.839 425.872 147.852 425.872 142.934C425.872 138.016 421.885 134.029 416.967 134.029C412.049 134.029 408.062 138.016 408.062 142.934C408.062 147.852 412.049 151.839 416.967 151.839Z" stroke="#C98BD2" stroke-width="1.3423" stroke-miterlimit="10"/>
<path d="M438.843 151.839C443.761 151.839 447.748 147.852 447.748 142.934C447.748 138.016 443.761 134.029 438.843 134.029C433.925 134.029 429.938 138.016 429.938 142.934C429.938 147.852 433.925 151.839 438.843 151.839Z" stroke="#C98BD2" stroke-width="1.3423" stroke-miterlimit="10"/>
<path d="M425.871 142.934C425.871 142.934 427.98 140.965 429.937 142.934" stroke="#C98BD2" stroke-width="1.3423" stroke-miterlimit="10"/>
<path d="M408.062 142.934L405.257 142.863" stroke="#C98BD2" stroke-width="1.3423" stroke-miterlimit="10"/>
<path d="M447.747 142.934L450.57 142.863" stroke="#C98BD2" stroke-width="1.3423" stroke-miterlimit="10"/>
<path d="M450.897 140.282C450.897 140.282 440.908 126.778 443.212 113.097C443.212 113.097 450.626 116.828 452.557 126.458C454.489 136.089 450.897 140.282 450.897 140.282Z" fill="#282828"/>
<path d="M404.873 141.197C404.873 141.197 416.477 125.859 414.173 112.178C414.173 112.178 406.124 116.827 404.194 126.458C402.264 136.089 404.873 141.197 404.873 141.197Z" fill="#282828"/>
<path d="M450.059 118.485C450.059 118.485 437.233 132.527 402.139 130.123C402.139 130.123 407.513 109.518 424.52 107.323C424.52 107.323 444.158 104.978 450.059 118.485Z" fill="#282828"/>
<path d="M449.159 118.826C458.413 118.826 465.915 111.324 465.915 102.07C465.915 92.8159 458.413 85.314 449.159 85.314C439.905 85.314 432.403 92.8159 432.403 102.07C432.403 111.324 439.905 118.826 449.159 118.826Z" fill="#282828"/>
<path d="M244.615 287.239L213.407 283.084L213.692 279.459L177.191 284.319C177.191 284.319 157.269 337.708 174.999 448.704H200.386L209.236 336.155H212.481L221.618 448.704H247.005C264.731 337.708 244.615 287.239 244.615 287.239Z" fill="#282828"/>
<path d="M242.125 135.395C237.901 130.426 234.519 124.629 231.645 116.494C228.559 107.762 218.456 111.311 218.456 111.311C218.456 111.311 210.037 100.48 197.368 104.253C184.699 108.025 180.297 117.041 180.039 127.759C179.781 138.477 171.351 140.154 164.858 152.553C153.398 174.443 172.693 192.88 207.817 187.765L207.864 187.424C211.322 188.474 215.562 188.933 220.737 188.626C262.933 186.12 258.861 155.084 242.125 135.395Z" fill="#282828"/>
<path d="M228.311 151.628C231.779 154.774 239.534 142.842 236.183 139.492C232.832 136.142 230.276 141.398 230.276 141.398L228.78 144.96L227.651 149.784L227.382 151.047L228.311 151.628Z" fill="#F3978E"/>
<path d="M234.563 143.718C234.563 143.718 231.938 142.537 229.605 146.343" stroke="#282828" stroke-width="0.9928" stroke-miterlimit="10" stroke-linecap="round" stroke-linejoin="round"/>
<path d="M187.298 151.266C184.108 154.694 175.372 143.461 178.428 139.84C181.484 136.219 184.475 141.239 184.475 141.239L186.267 144.661L187.8 149.372L188.174 150.608L187.298 151.266Z" fill="#F3978E"/>
<path d="M180.398 143.914C180.398 143.914 182.914 142.515 185.56 146.11" stroke="#282828" stroke-width="0.9928" stroke-miterlimit="10" stroke-linecap="round" stroke-linejoin="round"/>
<path d="M234.393 128.11C234.393 143.904 222.351 151.394 207.497 151.394C192.643 151.394 180.601 143.905 180.601 128.11C180.601 112.316 192.643 101.571 207.497 101.571C222.351 101.571 234.393 112.316 234.393 128.11Z" fill="#282828"/>
<path d="M218.456 163.354H196.33V192.005H218.456V163.354Z" fill="#FFB1A5"/>
<path d="M193.101 161.567C193.101 161.567 199.26 173.859 206.837 175.778C208.861 176.291 211.023 176.115 212.975 175.424C215.827 174.413 219.443 170.161 220.058 165.456L220.343 162.768C220.344 162.768 206.861 170.109 193.101 161.567Z" fill="#282828"/>
<path d="M230.738 129.209C230.738 138.905 229.368 147.272 228.001 153.21C226.662 159.024 222.895 163.087 217.57 166.357L216.6 166.953C210.967 170.413 203.688 170.494 197.968 167.16C192.199 163.797 188.16 159.363 186.917 153.124C184.656 141.777 184.409 129.209 184.409 129.209C184.409 129.209 182.258 104.732 207.243 105.208C232.228 105.683 230.738 129.209 230.738 129.209Z" fill="#FFB1A5"/>
<path d="M205.828 144.503V146.515C205.828 146.715 205.867 146.907 205.937 147.082C206.215 147.772 207.014 148.103 207.736 147.912L209.289 147.501" stroke="#282828" stroke-width="1.2298" stroke-miterlimit="10" stroke-linecap="round" stroke-linejoin="round"/>
<path d="M211.034 131.235L224.326 134.381C224.326 134.381 223.722 130.965 218.284 129.724C212.847 128.482 211.034 131.235 211.034 131.235Z" fill="#282828"/>
<path d="M204.055 131.235L190.592 134.381C190.592 134.381 191.204 130.965 196.712 129.724C202.219 128.482 204.055 131.235 204.055 131.235Z" fill="#282828"/>
<path d="M197.138 141.568C198.294 141.568 199.232 140.635 199.232 139.485C199.232 138.335 198.294 137.402 197.138 137.402C195.982 137.402 195.044 138.335 195.044 139.485C195.044 140.635 195.982 141.568 197.138 141.568Z" fill="#282828"/>
<path d="M216.99 141.568C218.146 141.568 219.084 140.635 219.084 139.485C219.084 138.335 218.146 137.402 216.99 137.402C215.834 137.402 214.896 138.335 214.896 139.485C214.896 140.635 215.834 141.568 216.99 141.568Z" fill="#282828"/>
<path d="M197.849 151.394H216.228C216.228 151.394 214.931 156.444 206.597 156.444C200.25 156.444 197.849 151.394 197.849 151.394Z" fill="white"/>
<path d="M184.731 137.324C184.731 137.324 194.72 123.819 192.416 110.138C192.416 110.138 185.002 113.869 183.071 123.499C181.14 133.13 184.731 137.324 184.731 137.324Z" fill="#282828"/>
<path d="M230.755 136.874C230.755 136.874 219.151 122.901 221.455 109.22C221.455 109.22 229.503 113.87 231.434 123.5C233.365 133.13 230.755 136.874 230.755 136.874Z" fill="#282828"/>
<path d="M185.569 115.527C185.569 115.527 197.031 130.933 232.124 128.53C232.124 128.53 228.115 106.56 211.108 104.365C211.108 104.365 191.471 102.02 185.569 115.527Z" fill="#282828"/>
<path d="M153.579 355.008C153.069 355.811 182.787 225.703 173.964 227.67C173.159 227.849 157.706 229.284 155.409 233.954C148.752 247.49 143.977 354.02 143.977 354.02L153.579 355.008Z" fill="#FFB1A5"/>
<path d="M143.977 354.02C143.977 354.02 139.187 376.246 157.295 378.675C158.488 378.835 159.641 378.13 160.034 376.992L160.086 376.842C160.519 375.586 159.89 374.239 158.677 373.697C155.725 372.377 151.146 369.042 153.418 361.468C153.418 361.468 156.035 361.147 157.48 366.029C157.852 367.286 159.261 367.917 160.431 367.328C161.23 366.926 161.679 366.066 161.567 365.18C161.133 361.76 159.412 353.529 152.812 351.32L143.977 354.02Z" fill="#FFB1A5"/>
<path d="M150.071 265.216C150.071 265.216 167.194 289.33 167.284 288.863C167.374 288.397 173.272 255.008 173.272 255.008L152.494 246.008L150.071 265.216Z" fill="#F3978E"/>
<path d="M197.647 187.288C198.377 187.284 155.329 188.055 147.461 242.412L172.201 246.202L177.189 287.239H246.205L259.907 211.419C259.907 211.419 250.166 194.992 221.775 186.944L197.647 187.288Z" fill="#00857B"/>
<path d="M176.606 193.859C176.606 193.859 182.689 201.935 207.616 201.935C232.311 201.935 238.627 193.435 238.627 193.435C238.627 193.435 224.069 185.301 207.176 182.67C207.176 182.671 192.092 185.358 176.606 193.859Z" fill="#FFB1A5"/>
<path d="M261.304 366.062L261.364 474.467H314.993L319.114 366.062H261.304Z" fill="#005683"/>
<path d="M377.745 366.062L377.687 474.467H324.058L319.936 366.062H377.745Z" fill="#005683"/>
<path d="M348.457 366.062H293.007V403.723H348.457V366.062Z" fill="#005683"/>
<path d="M300.752 403.723H338.997" stroke="#282828" stroke-width="1.3968" stroke-miterlimit="10" stroke-linecap="round" stroke-linejoin="round"/>
<path d="M411.625 271.458C414.95 308.191 411.442 334.957 412.412 402.55L380.404 403.891L375.634 277.369L411.625 271.458Z" fill="#FFB1A5"/>
<path d="M379.583 300.123C379.583 300.123 399.404 298.309 412.956 289.369L412.599 281.502L379.572 286L379.583 300.123Z" fill="#F3978E"/>
<path d="M347.784 186.883C347.784 186.883 410.744 202.716 422.151 282.63C422.151 282.63 391.337 295.989 360.457 290.243L367.404 263.514L347.784 186.883Z" fill="#C98BD2"/>
<path d="M159.723 220.112L206.6 275.473L192.255 315.871C192.255 315.871 156.625 266.334 140.615 228.045L159.723 220.112Z" fill="#FFB1A5"/>
<path d="M161.265 222.11C161.265 222.11 144.804 231.41 140.617 228.046C133.3 222.167 127.253 200.647 127.253 200.647C127.253 200.647 158.035 189.042 157.746 189.496C157.456 189.949 161.265 222.11 161.265 222.11Z" fill="#FFB1A5"/>
<path d="M161.265 222.11C160.973 220.453 167.369 202.575 169.561 195.871C170.09 194.254 168.975 192.481 167.22 192.145C166.077 191.926 164.268 192.067 163.412 193.706L155.691 206.902L161.265 222.11Z" fill="#FFB1A5"/>
<path d="M160.7 202.783L155.399 176.41C155.085 174.655 153.321 173.446 151.562 173.778C150.04 174.066 149.036 175.422 149.215 176.949L151.526 196.587L160.7 202.783Z" fill="#FFB1A5"/>
<path d="M150.159 193.056L142.96 174.223C142.365 172.574 140.509 171.66 138.87 172.209C137.449 172.685 136.652 174.117 136.988 175.587L142.329 197.349L150.159 193.056Z" fill="#FFB1A5"/>
<path d="M142.422 198.609L133.314 180.104C132.478 178.387 130.398 177.589 128.691 178.332C127.087 179.029 126.378 180.846 127.064 182.498L134.325 199.968L142.422 198.609Z" fill="#FFB1A5"/>
<path d="M127.253 200.647L120.106 189.311C119.514 187.978 120.061 186.482 121.356 185.891C122.595 185.325 124.126 185.77 124.927 186.93L134.325 199.969L127.253 200.647Z" fill="#FFB1A5"/>
<path d="M159.26 200.802C159.26 200.802 148.527 199.676 147.425 213.979" stroke="#282828" stroke-width="1.5317" stroke-miterlimit="10" stroke-linecap="round" stroke-linejoin="round"/>
<path d="M182.749 296.976C182.749 296.976 191.566 327.49 209.136 323.433C226.705 319.376 254.089 281.851 254.089 281.851L247.96 217.777L198.647 278.47L182.749 296.976Z" fill="#FFB1A5"/>
<path d="M213.941 259.618C213.941 259.618 230.59 284.73 244.792 293.586L254.088 281.852L218.227 254.111L213.941 259.618Z" fill="#F3978E"/>
<path d="M286.783 185.498C286.783 185.498 237.903 196.516 211.855 253.324C211.855 253.324 227.593 277.038 252.824 287.578L269.716 266.884L286.783 185.498Z" fill="#C98BD2"/>
<path d="M286.783 185.322C267.689 195.116 255.685 208.105 255.685 208.105L259.453 374.165H379.78L379.389 208.962C379.389 208.962 364.222 194.12 347.784 186.884C333.822 180.737 300.357 178.36 286.783 185.322Z" fill="#C98BD2"/>
<path d="M343.72 266.239C334.477 266.239 326.984 258.746 326.984 249.503V232.767H360.457V249.503C360.456 258.746 352.963 266.239 343.72 266.239Z" stroke="#282828" stroke-width="1.3968" stroke-miterlimit="10" stroke-linecap="round" stroke-linejoin="round"/>
<path d="M379.583 290.861L381.144 236.538" stroke="#282828" stroke-width="1.3968" stroke-miterlimit="10" stroke-linecap="round" stroke-linejoin="round"/>
<path d="M257.534 281.807L254.934 234.718" stroke="#282828" stroke-width="1.3968" stroke-miterlimit="10" stroke-linecap="round" stroke-linejoin="round"/>
<path d="M288.193 124.669L283.177 99.854C282.895 97.833 282.111 94.713 283.071 91.783C284.659 86.934 290.498 77.621 300.478 81.885L302.635 91.71C302.635 91.71 292.271 93.802 288.114 107.36L288.193 124.669Z" fill="#282828"/>
<path d="M299.744 87.008C299.562 90.269 296.684 104.535 286.567 109.732C286.566 109.732 277.704 90.726 299.744 87.008Z" fill="#282828"/>
<path d="M335.237 180.753V138.617H296.393V180.753L284.83 186.024C284.83 186.024 287.542 203.488 316.223 203.875C344.904 204.262 347.785 186.883 347.785 186.883L335.237 180.753Z" fill="#FFB1A5"/>
<path d="M300.478 81.885C300.478 81.885 307.607 63.079 329.59 73.077C342.896 79.128 346.622 87.242 348.207 92.99C348.734 94.9 348.944 97.908 348.801 99.695L343.484 124.669L322.724 90.117L302.636 91.71L300.478 81.885Z" fill="#282828"/>
<path d="M343.484 124.669C343.484 124.669 346.103 120.503 351.505 122.552C356.907 124.601 354.463 137.718 346.36 139.39C346.36 139.39 343.456 140.023 341.178 138.035C341.178 138.035 343.17 128.346 343.484 124.669Z" fill="#F3978E"/>
<path d="M350.433 127.18C350.433 127.18 345.909 125.67 342.697 132.333" stroke="#282828" stroke-width="1.3968" stroke-miterlimit="10" stroke-linecap="round" stroke-linejoin="round"/>
<path d="M288.193 124.669C288.193 124.669 285.574 120.503 280.173 122.552C274.772 124.601 277.215 137.718 285.317 139.39C285.317 139.39 288.221 140.023 290.499 138.035C290.498 138.035 288.506 128.346 288.193 124.669Z" fill="#F3978E"/>
<path d="M281.244 127.18C281.244 127.18 285.768 125.67 288.98 132.333" stroke="#282828" stroke-width="1.3968" stroke-miterlimit="10" stroke-linecap="round" stroke-linejoin="round"/>
<path d="M344.025 112.221C344.028 120.129 343.252 136.673 338.39 146.492C333.826 155.712 326.276 160.674 316.378 160.969C306.48 161.264 299.107 157.45 293.198 145.484C287.289 133.518 287.571 112.367 287.571 112.367C287.571 112.367 287.571 84.117 315.491 84.117C344.898 84.119 344.025 112.221 344.025 112.221Z" fill="#FFB1A5"/>
<path d="M296.684 151.383C296.684 151.383 299.937 167.888 314.302 169.785C330.834 171.967 335.237 151.803 335.237 151.803C335.237 151.803 327.931 160.957 316.379 160.971C303.494 160.986 296.684 151.383 296.684 151.383Z" fill="#282828"/>
<path d="M313.807 123.949V130.487C313.807 130.768 313.861 131.037 313.96 131.283C314.347 132.252 315.462 132.716 316.47 132.448L318.637 131.871" stroke="#282828" stroke-width="1.3968" stroke-miterlimit="10" stroke-linecap="round" stroke-linejoin="round"/>
<path d="M303.02 123.369C304.424 123.369 305.562 122.231 305.562 120.827C305.562 119.423 304.424 118.285 303.02 118.285C301.616 118.285 300.478 119.423 300.478 120.827C300.478 122.231 301.616 123.369 303.02 123.369Z" fill="#282828"/>
<path d="M326.85 123.369C328.254 123.369 329.392 122.231 329.392 120.827C329.392 119.423 328.254 118.285 326.85 118.285C325.446 118.285 324.308 119.423 324.308 120.827C324.308 122.231 325.446 123.369 326.85 123.369Z" fill="#282828"/>
<path d="M320.344 108.182L337.433 112.597C337.433 112.597 336.657 107.804 329.665 106.062C322.673 104.32 320.344 108.182 320.344 108.182Z" fill="#282828"/>
<path d="M309.725 108.182L292.636 112.597C292.636 112.597 293.413 107.804 300.404 106.062C307.395 104.32 309.725 108.182 309.725 108.182Z" fill="#282828"/>
<path d="M306.327 137.074C306.327 137.074 308.848 139.006 315.477 139.006C321.505 139.006 325.271 137.074 325.271 137.074" stroke="#282828" stroke-width="1.3968" stroke-miterlimit="10" stroke-linecap="round" stroke-linejoin="round"/>
<path d="M302.336 132.37C308.301 132.37 313.136 127.535 313.136 121.57C313.136 115.605 308.301 110.77 302.336 110.77C296.371 110.77 291.536 115.605 291.536 121.57C291.536 127.535 296.371 132.37 302.336 132.37Z" stroke="white" stroke-width="1.9514" stroke-miterlimit="10"/>
<path d="M328.868 132.37C334.833 132.37 339.668 127.535 339.668 121.57C339.668 115.605 334.833 110.77 328.868 110.77C322.903 110.77 318.068 115.605 318.068 121.57C318.068 127.535 322.903 132.37 328.868 132.37Z" stroke="white" stroke-width="1.9514" stroke-miterlimit="10"/>
<path d="M313.136 121.57C313.136 121.57 315.694 119.183 318.068 121.57" stroke="white" stroke-width="1.9514" stroke-miterlimit="10"/>
<path d="M291.536 121.57L287.914 121.478" stroke="white" stroke-width="1.9514" stroke-miterlimit="10"/>
<path d="M339.668 121.57L343.711 121.504" stroke="white" stroke-width="1.9514" stroke-miterlimit="10"/>
<path d="M296.684 87.653C296.684 87.653 301.872 102.388 325.275 101.936C341.178 101.629 344.978 113.137 344.978 113.137C344.978 113.137 342.21 87.41 341.483 87.653C340.756 87.896 317.284 81.39 317.284 81.39L296.684 87.653Z" fill="#282828"/>
</svg>
