<svg xmlns="http://www.w3.org/2000/svg" viewBox="0 0 500 500"><g id="freepik--background-complete--inject-6"><path d="M257.05,260.2H65.36V61.94H257.05Zm-187.69-4H253.05V65.94H69.36Z" style="fill:#ebebeb"></path><rect x="157.65" y="66.98" width="4" height="191.21" style="fill:#ebebeb"></rect><rect x="61.73" y="70.03" width="198.95" height="5.57" style="fill:#ebebeb"></rect><rect x="61.73" y="76.29" width="198.95" height="5.57" style="fill:#ebebeb"></rect><rect x="61.73" y="82.56" width="198.95" height="5.57" style="fill:#ebebeb"></rect><rect x="61.73" y="88.82" width="198.95" height="5.57" style="fill:#ebebeb"></rect><rect x="61.73" y="95.09" width="198.95" height="5.57" style="fill:#ebebeb"></rect><rect x="61.73" y="101.36" width="198.95" height="5.57" style="fill:#ebebeb"></rect><rect x="61.73" y="107.62" width="198.95" height="5.57" style="fill:#ebebeb"></rect><rect x="61.73" y="113.89" width="198.95" height="5.57" style="fill:#ebebeb"></rect><rect x="61.73" y="120.16" width="198.95" height="5.57" style="fill:#ebebeb"></rect><rect x="247.8" y="68.9" width="1" height="128.39" style="fill:#263238"></rect><polygon points="250.08 201.94 246.53 201.94 247.42 196.84 249.19 196.84 250.08 201.94" style="fill:#263238"></polygon><rect x="251.41" y="68.9" width="1" height="185.73" style="fill:#263238"></rect><polygon points="253.68 258.38 250.13 258.38 251.02 253.28 252.79 253.28 253.68 258.38" style="fill:#263238"></polygon><rect x="55.53" y="61.16" width="211.36" height="11.65" style="fill:#dbdbdb"></rect><path d="M373.44,88.32c0-.84.11-3.06.11-4,0-4.07-1.44-5.91-5.23-6-1.79-.11-2.85-1.17-2.85-2.68s1.06-2.56,2.85-2.67c3.79-.17,5.23-2,5.23-6.08,0-1-.11-3.18-.11-4,0-5.41,2.29-8.87,10.93-10.76a2.41,2.41,0,0,1,1.5,4.57c-5.4,1.67-6.18,3.4-6.18,7.19,0,1.12.11,3,.11,4.13,0,4.34-2.12,6.46-5.8,7.63,3.74,1.23,5.8,3.29,5.8,7.64,0,1.17-.11,3-.11,4.12,0,3.79.78,5.52,6.18,7.19a2.41,2.41,0,0,1-1.5,4.58C375.73,97.24,373.44,93.78,373.44,88.32Z" style="fill:#ebebeb"></path><path d="M406.11,62.85c0,.83-.11,3.06-.11,4,0,4.13,1.5,5.91,5.29,6.08a2.68,2.68,0,1,1,0,5.35c-3.79.11-5.29,1.95-5.29,6,0,1,.11,3.17.11,4,0,5.46-2.29,8.92-10.93,10.82a2.4,2.4,0,0,1-1.45-4.58c5.35-1.67,6.13-3.4,6.13-7.19,0-1.11-.11-3-.11-4.12,0-4.35,2.12-6.47,5.8-7.64-3.74-1.22-5.8-3.29-5.8-7.63,0-1.17.11-3,.11-4.13,0-3.79-.78-5.52-6.13-7.19a2.4,2.4,0,0,1,1.45-4.57C403.82,54,406.11,57.44,406.11,62.85Z" style="fill:#ebebeb"></path><path d="M405,257.47a2.36,2.36,0,0,1-1.64,4,2.51,2.51,0,0,1-1.73-.67l-10.52-10.68c-.11,0-.15-.11-.19-.22a.39.39,0,0,0-.11-.08,1.08,1.08,0,0,1-.11-.3.19.19,0,0,1-.11-.15c0-.07,0-.18-.08-.22s-.07-.15-.07-.19v-.26c0-.07,0-.11,0-.22s0-.15,0-.19v-.26c0-.08.07-.12.07-.15s0-.19.08-.3,0,0,0-.08a2.45,2.45,0,0,1,.18-.33.08.08,0,0,1,.08-.08.64.64,0,0,1,.22-.26l10.52-10.67a2.44,2.44,0,0,1,3.37,0,2.37,2.37,0,0,1,0,3.37l-8.87,9Z" style="fill:#ebebeb"></path><path d="M414.55,258.66l9.18-21.83a2.07,2.07,0,0,1,2.73-1.08,2,2,0,0,1,1.05,2.66l-9.18,21.86a2.06,2.06,0,0,1-1.91,1.24,1.78,1.78,0,0,1-.74-.15A2,2,0,0,1,414.55,258.66Z" style="fill:#ebebeb"></path><path d="M445.63,249.86a0,0,0,0,1,0,0,1.28,1.28,0,0,1-.26.26l-10.52,10.68a2.45,2.45,0,0,1-3.37,0,2.37,2.37,0,0,1,0-3.37l8.87-9-8.87-9a2.37,2.37,0,0,1,0-3.37,2.44,2.44,0,0,1,3.37,0l10.52,10.67a1.59,1.59,0,0,1,.26.26s0,.08,0,.08a2.44,2.44,0,0,1,.19.33s0,0,0,.08a1.15,1.15,0,0,0,.11.33s0,0,0,.12v.26s0,.15,0,.19,0,.15,0,.18v.3s0,0,0,.08a1.76,1.76,0,0,0-.11.33s0,0,0,.12S445.71,249.71,445.63,249.86Z" style="fill:#ebebeb"></path><path d="M469.86,160.33a7.88,7.88,0,0,1-7.3,7.86v0H417.94a9.26,9.26,0,0,1-.86-18.48,15.6,15.6,0,0,1,30.23-4.88,9.15,9.15,0,0,1,4.14-1,9.27,9.27,0,0,1,9.25,8.69,7.63,7.63,0,0,1,1.28-.1A7.87,7.87,0,0,1,469.86,160.33Z" style="fill:#dbdbdb"></path></g><g id="freepik--Floor--inject-6"><polygon points="66.73 420.76 112.55 420.51 158.37 420.43 250 420.26 341.63 420.43 387.45 420.51 433.27 420.76 387.45 421 341.63 421.09 250 421.26 158.37 421.09 112.55 421 66.73 420.76" style="fill:#263238"></polygon></g><g id="freepik--Shadow--inject-6"><ellipse cx="86.08" cy="459.52" rx="44.28" ry="8.5" style="fill:#ebebeb"></ellipse><ellipse cx="263.97" cy="445.33" rx="174.42" ry="18.91" style="fill:#ebebeb"></ellipse></g><g id="freepik--Windows--inject-6"><rect x="280.48" y="61.59" width="79.11" height="50.47" style="fill:#fff"></rect><path d="M360.09,112.56H280V61.09h80.11Zm-79.11-1h78.11V62.09H281Z" style="fill:#ebebeb"></path><rect x="280.48" y="61.59" width="79.11" height="9.54" style="fill:#FFC727"></rect><path d="M360.09,71.64H280V61.09h80.11Zm-79.11-1h78.11V62.09H281Z" style="fill:#ebebeb"></path><path d="M289.43,66.43A2.4,2.4,0,1,1,287,64,2.4,2.4,0,0,1,289.43,66.43Z" style="fill:#a6a6a6"></path><path d="M299.24,66.43a2.4,2.4,0,1,1-2.4-2.4A2.4,2.4,0,0,1,299.24,66.43Z" style="fill:#ebebeb"></path><path d="M309.05,66.43a2.4,2.4,0,1,1-2.4-2.4A2.4,2.4,0,0,1,309.05,66.43Z" style="fill:#fff"></path><path d="M294.13,90a9.75,9.75,0,0,1,9.75-9.57A10,10,0,0,1,310,82.51a1.58,1.58,0,0,1,.26,2.13,1.55,1.55,0,0,1-2.12.29,6.63,6.63,0,0,0-4.29-1.46,7,7,0,0,0-4.78,1.91A6.54,6.54,0,0,0,297.16,90a6.45,6.45,0,0,0,1.94,4.62,7,7,0,0,0,4.78,1.92,6.7,6.7,0,0,0,4.29-1.47,1.61,1.61,0,0,1,2.12.3A1.57,1.57,0,0,1,310,97.5a9.94,9.94,0,0,1-6.15,2.08A9.73,9.73,0,0,1,294.13,90Z" style="fill:#ebebeb"></path><path d="M314.86,95a1.39,1.39,0,0,1,1.94-.18,8.69,8.69,0,0,0,5.08,2,5.76,5.76,0,0,0,3.32-1,2.39,2.39,0,0,0,1.14-1.92,1.53,1.53,0,0,0-.23-.85,2.5,2.5,0,0,0-.8-.79A10.45,10.45,0,0,0,321.67,91h-.06a14.35,14.35,0,0,1-3.43-1,5.75,5.75,0,0,1-2.47-2.07,4.07,4.07,0,0,1-.61-2.18,4.88,4.88,0,0,1,2.13-3.88,7.82,7.82,0,0,1,4.6-1.41,10.44,10.44,0,0,1,5.79,2.12,1.37,1.37,0,0,1,.37,1.89,1.33,1.33,0,0,1-1.88.4,7.76,7.76,0,0,0-4.28-1.7,5.09,5.09,0,0,0-3,.9,2.13,2.13,0,0,0-1,1.68,1.22,1.22,0,0,0,.19.74,2.46,2.46,0,0,0,.71.69,9,9,0,0,0,3.33,1.17h.05a15.8,15.8,0,0,1,3.67,1.12,6.13,6.13,0,0,1,2.65,2.21,4.26,4.26,0,0,1,.64,2.25A5.14,5.14,0,0,1,326.8,98a8.38,8.38,0,0,1-4.92,1.51,11.49,11.49,0,0,1-6.81-2.66A1.42,1.42,0,0,1,314.86,95Z" style="fill:#ebebeb"></path><path d="M332.33,95a1.39,1.39,0,0,1,1.94-.18,8.66,8.66,0,0,0,5.07,2,5.79,5.79,0,0,0,3.33-1,2.42,2.42,0,0,0,1.14-1.92,1.53,1.53,0,0,0-.24-.85,2.5,2.5,0,0,0-.8-.79A10.45,10.45,0,0,0,339.13,91h-.05a14.35,14.35,0,0,1-3.43-1,5.69,5.69,0,0,1-2.47-2.07,4.08,4.08,0,0,1-.62-2.18,4.91,4.91,0,0,1,2.13-3.88,7.82,7.82,0,0,1,4.6-1.41,10.44,10.44,0,0,1,5.79,2.12,1.37,1.37,0,0,1,.38,1.89,1.34,1.34,0,0,1-1.89.4,7.76,7.76,0,0,0-4.28-1.7,5.09,5.09,0,0,0-3,.9,2.13,2.13,0,0,0-1,1.68,1.29,1.29,0,0,0,.19.74,2.39,2.39,0,0,0,.72.69,9,9,0,0,0,3.32,1.17h.05a15.51,15.51,0,0,1,3.67,1.12,6.16,6.16,0,0,1,2.66,2.21,4.26,4.26,0,0,1,.64,2.25A5.15,5.15,0,0,1,344.26,98a8.35,8.35,0,0,1-4.92,1.51,11.43,11.43,0,0,1-6.8-2.66A1.4,1.4,0,0,1,332.33,95Z" style="fill:#ebebeb"></path><rect x="306.14" y="107.82" width="108.05" height="76.51" style="fill:#fff"></rect><path d="M414.7,184.83H305.64V107.32H414.7Zm-108.06-1H413.7V108.32H306.64Z" style="fill:#ebebeb"></path><rect x="306.14" y="107.82" width="108.05" height="9.54" style="fill:#FFC727"></rect><path d="M414.7,117.87H305.64V107.32H414.7Zm-108.06-1H413.7v-8.55H306.64Z" style="fill:#ebebeb"></path><path d="M315.1,112.66a2.4,2.4,0,1,1-2.4-2.4A2.4,2.4,0,0,1,315.1,112.66Z" style="fill:#a6a6a6"></path><path d="M324.91,112.66a2.41,2.41,0,1,1-2.4-2.4A2.4,2.4,0,0,1,324.91,112.66Z" style="fill:#ebebeb"></path><path d="M334.72,112.66a2.41,2.41,0,1,1-2.41-2.4A2.4,2.4,0,0,1,334.72,112.66Z" style="fill:#fff"></path><rect x="316.38" y="136.35" width="5.1" height="1.86" style="fill:#ebebeb"></rect><rect x="325.2" y="136.35" width="34.65" height="1.86" style="fill:#ebebeb"></rect><rect x="362.98" y="136.35" width="9.69" height="1.86" style="fill:#FFC727"></rect><rect x="385.15" y="161.29" width="9.69" height="1.86" style="fill:#ebebeb"></rect><rect x="374.78" y="136.35" width="16.75" height="1.86" style="fill:#a6a6a6"></rect><rect x="321.48" y="141.34" width="5.1" height="1.86" style="fill:#ebebeb"></rect><rect x="330.18" y="141.34" width="22.49" height="1.86" style="fill:#a6a6a6"></rect><rect x="360.36" y="161.29" width="22.49" height="1.86" style="fill:#a6a6a6"></rect><rect x="325.2" y="156.3" width="20.77" height="1.86" style="fill:#a6a6a6"></rect><rect x="330.18" y="146.33" width="9.82" height="1.86" style="fill:#FFC727"></rect><rect x="369.47" y="151.32" width="9.82" height="1.86" style="fill:#a6a6a6"></rect><rect x="342.85" y="146.33" width="33.14" height="1.86" style="fill:#a6a6a6"></rect><rect x="325.2" y="161.29" width="33.14" height="1.86" style="fill:#FFC727"></rect><rect x="373.7" y="141.34" width="26.59" height="1.86" style="fill:#FFC727"></rect><rect x="355.08" y="141.34" width="16.52" height="1.86" style="fill:#ebebeb"></rect><rect x="377.92" y="146.33" width="16.52" height="1.86" style="fill:#ebebeb"></rect><rect x="321.48" y="146.33" width="5.1" height="1.86" style="fill:#ebebeb"></rect><rect x="316.38" y="151.32" width="5.1" height="1.86" style="fill:#a6a6a6"></rect><rect x="325.2" y="151.32" width="14.23" height="1.86" style="fill:#ebebeb"></rect><rect x="330.18" y="166.28" width="14.23" height="1.86" style="fill:#ebebeb"></rect><rect x="362.52" y="171.27" width="22.93" height="1.86" style="fill:#FFC727"></rect><rect x="346.86" y="166.28" width="22.28" height="1.86" style="fill:#FFC727"></rect><rect x="341.52" y="171.27" width="18.36" height="1.86" style="fill:#ebebeb"></rect><rect x="371.75" y="166.28" width="28.54" height="1.86" style="fill:#a6a6a6"></rect><rect x="330.18" y="171.27" width="8.73" height="1.86" style="fill:#a6a6a6"></rect><rect x="348.04" y="156.3" width="24.63" height="1.86" style="fill:#ebebeb"></rect><rect x="374.78" y="156.3" width="20.74" height="1.86" style="fill:#FFC727"></rect><rect x="342.5" y="151.32" width="24.59" height="1.86" style="fill:#FFC727"></rect><rect x="316.38" y="156.3" width="5.1" height="1.86" style="fill:#ebebeb"></rect><rect x="316.38" y="161.29" width="5.1" height="1.86" style="fill:#ebebeb"></rect><rect x="321.48" y="166.28" width="5.1" height="1.86" style="fill:#a6a6a6"></rect><rect x="321.48" y="171.27" width="5.1" height="1.86" style="fill:#ebebeb"></rect><path d="M319.53,131.44a.43.43,0,0,1,0,.63.42.42,0,0,1-.31.13.44.44,0,0,1-.32-.13l-2-2s0,0,0-.05h0s0,0,0-.06a0,0,0,0,1,0,0,.07.07,0,0,0,0-.05s0,0,0,0v-.05s0,0,0,0,0,0,0,0v0a0,0,0,0,1,0,0,.13.13,0,0,0,0-.06h0s0-.05,0-.07a0,0,0,0,1,0,0s0,0,0,0l2-2a.47.47,0,0,1,.63,0,.43.43,0,0,1,0,.63l-1.66,1.68Z" style="fill:#FFC727"></path><path d="M321.32,131.67l1.71-4.09a.4.4,0,0,1,.51-.2.39.39,0,0,1,.2.5L322,132a.39.39,0,0,1-.35.23.32.32,0,0,1-.14,0A.37.37,0,0,1,321.32,131.67Z" style="fill:#FFC727"></path><path d="M327.13,130h0l-.05.05-2,2a.42.42,0,0,1-.31.13.44.44,0,0,1-.32-.13.45.45,0,0,1,0-.63l1.66-1.67-1.66-1.68a.45.45,0,0,1,0-.63.47.47,0,0,1,.63,0l2,2,.05,0a0,0,0,0,1,0,0l0,.07h0l0,.06s0,0,0,0v.18h0a.64.64,0,0,1,0,.07s0,0,0,0A.16.16,0,0,0,327.13,130Z" style="fill:#FFC727"></path><rect x="385.01" y="177.64" width="79.11" height="50.47" style="fill:#fff"></rect><path d="M464.62,228.6H384.51V177.14h80.11Zm-79.11-1h78.11V178.14H385.51Z" style="fill:#ebebeb"></path><rect x="385.01" y="177.64" width="79.11" height="9.54" style="fill:#FFC727"></rect><path d="M464.62,187.68H384.51V177.14h80.11Zm-79.11-1h78.11v-8.54H385.51Z" style="fill:#ebebeb"></path><path d="M394,182.48a2.41,2.41,0,1,1-2.41-2.4A2.4,2.4,0,0,1,394,182.48Z" style="fill:#a6a6a6"></path><path d="M403.77,182.48a2.4,2.4,0,1,1-2.4-2.4A2.39,2.39,0,0,1,403.77,182.48Z" style="fill:#ebebeb"></path><path d="M413.58,182.48a2.4,2.4,0,1,1-2.4-2.4A2.39,2.39,0,0,1,413.58,182.48Z" style="fill:#fff"></path><path d="M399.78,206.05a9.76,9.76,0,0,1,9.75-9.57,9.89,9.89,0,0,1,6.14,2.08,1.53,1.53,0,0,1-1.86,2.42,6.61,6.61,0,0,0-4.28-1.47,7,7,0,0,0-4.78,1.92,6.54,6.54,0,0,0-1.94,4.62,6.46,6.46,0,0,0,1.94,4.63,7,7,0,0,0,4.78,1.91,6.64,6.64,0,0,0,4.28-1.46,1.62,1.62,0,0,1,2.13.29,1.57,1.57,0,0,1-.27,2.13,9.94,9.94,0,0,1-6.14,2.07A9.72,9.72,0,0,1,399.78,206.05Z" style="fill:#ebebeb"></path><path d="M425.27,207.73h-3.78a1.46,1.46,0,0,1-1.46-1.46,1.48,1.48,0,0,1,1.46-1.47h3.78v-3.69a1.5,1.5,0,0,1,1.51-1.52,1.52,1.52,0,0,1,1.52,1.52v3.69h3.77a1.48,1.48,0,0,1,1.46,1.47,1.46,1.46,0,0,1-1.46,1.46H428.3v3.69a1.52,1.52,0,0,1-1.52,1.52,1.5,1.5,0,0,1-1.51-1.52Z" style="fill:#ebebeb"></path><path d="M441.75,207.73H438a1.46,1.46,0,0,1-1.46-1.46A1.48,1.48,0,0,1,438,204.8h3.78v-3.69a1.5,1.5,0,0,1,1.51-1.52,1.53,1.53,0,0,1,1.52,1.52v3.69h3.77a1.48,1.48,0,0,1,1.46,1.47,1.46,1.46,0,0,1-1.46,1.46h-3.77v3.69a1.53,1.53,0,0,1-1.52,1.52,1.5,1.5,0,0,1-1.51-1.52Z" style="fill:#ebebeb"></path><rect x="397.61" y="93.79" width="53.89" height="19.95" style="fill:#455a64"></rect><path d="M405.39,107.91V99.06a.82.82,0,0,1,.83-.83.83.83,0,0,1,.84.83v3.6h3.88v-3.6a.82.82,0,0,1,.83-.83.83.83,0,0,1,.84.83v8.85a.83.83,0,0,1-.84.82.81.81,0,0,1-.83-.82v-3.6h-3.88v3.6a.83.83,0,0,1-.84.82A.81.81,0,0,1,405.39,107.91Z" style="fill:#fff"></path><path d="M422.45,99.9h-2.39v8a.81.81,0,0,1-.82.82.83.83,0,0,1-.83-.82v-8H416a.83.83,0,0,1-.82-.84.81.81,0,0,1,.82-.83h6.41a.82.82,0,0,1,.82.83A.84.84,0,0,1,422.45,99.9Z" style="fill:#fff"></path><path d="M434.78,99.06v8.85a.84.84,0,0,1-.84.82.82.82,0,0,1-.83-.82v-6.32l-2.16,3a.8.8,0,0,1-.67.35h0a.83.83,0,0,1-.69-.35l-2.15-3v6.32a.83.83,0,0,1-1.66,0V99.06a.83.83,0,0,1,.82-.83h.05a.8.8,0,0,1,.66.35l3,4.14,3-4.14a.8.8,0,0,1,.67-.35h0A.86.86,0,0,1,434.78,99.06Z" style="fill:#fff"></path><path d="M438.41,107.91V99.06a.83.83,0,0,1,.82-.83.84.84,0,0,1,.84.83v8h4.07a.83.83,0,0,1,0,1.66h-4.91A.82.82,0,0,1,438.41,107.91Z" style="fill:#fff"></path><rect x="270.68" y="158.43" width="44.41" height="19.95" style="fill:#455a64"></rect><path d="M283.89,169.3h-1.84v3.25a.84.84,0,0,1-1.67,0V163.7a.83.83,0,0,1,.83-.82h2.68a3.21,3.21,0,1,1,0,6.42Zm-1.84-1.67h1.84a1.55,1.55,0,1,0,0-3.09h-1.84Z" style="fill:#fff"></path><path d="M289.13,172.55V163.7a.83.83,0,0,1,1.66,0v3.6h3.89v-3.6a.81.81,0,0,1,.83-.82.83.83,0,0,1,.84.82v8.85a.83.83,0,0,1-.84.83.82.82,0,0,1-.83-.83V169h-3.89v3.6a.83.83,0,1,1-1.66,0Z" style="fill:#fff"></path><path d="M303.28,169.3h-1.85v3.25a.84.84,0,0,1-.84.83.83.83,0,0,1-.82-.83V163.7a.82.82,0,0,1,.82-.82h2.69a3.21,3.21,0,1,1,0,6.42Zm-1.85-1.67h1.85a1.55,1.55,0,1,0,0-3.09h-1.85Z" style="fill:#fff"></path></g><g id="freepik--Chair--inject-6"><polygon points="257.5 324.43 260.08 339.94 277.6 434.55 280.43 434.55 267.69 339.94 265.8 324.43 257.5 324.43" style="fill:#a6a6a6"></polygon><polygon points="265.8 324.43 257.5 324.43 260.08 339.94 267.69 339.94 265.8 324.43" style="fill:#263238"></polygon><polygon points="202.48 434.55 205.31 434.55 222.82 339.94 225.41 324.43 217.1 324.43 215.22 339.94 202.48 434.55" style="fill:#a6a6a6"></polygon><polygon points="217.1 324.43 215.22 339.94 222.82 339.94 225.41 324.43 217.1 324.43" style="fill:#263238"></polygon><polygon points="149.94 434.55 152.76 434.55 170.28 339.94 172.86 324.43 164.56 324.43 162.68 339.94 149.94 434.55" style="fill:#a6a6a6"></polygon><polygon points="162.68 339.94 170.28 339.94 172.86 324.43 164.56 324.43 162.68 339.94" style="fill:#263238"></polygon><polygon points="154.41 331.72 282.79 331.72 282.79 318.19 234.73 318.19 218.58 204.22 159.31 204.22 154.41 331.72" style="fill:#a6a6a6"></polygon><polygon points="154.41 331.72 161.41 331.72 165.97 204.22 159.31 204.22 154.41 331.72" style="fill:#dbdbdb"></polygon></g><g id="freepik--Character--inject-6"><path d="M238.61,213.21l-2.48-.26c.07-3.19-1.44-8.24-1.18-5.75a24.83,24.83,0,0,1-.25,5.61l-37.86-3.88c0-4.82,2.93-12.44,2.93-12.44-2.83,3.7-4.34,9.19-5,12.23l-4-.41c-.11-2.89,1.39-7.65,1.39-7.65-1.28,1.81-2.3,5.33-2.83,7.51l-4.51-.47a29.67,29.67,0,0,1,7-16.17c3.51-4.25,5-7.94,5.6-17.81.68-11.85,8.94-15.14,10.22-16.45,11.31-11.61,29.94.11,28.08,14.83-1.4,11.08-2.7,12.28,1.38,22.77C240.18,202.75,238.61,213.21,238.61,213.21Z" style="fill:#263238"></path><path d="M213.81,208.29c5.73,20.88,10.51,37.06,16.49,41,4.83,3.17,11.61,5.4,18.58,7a176.62,176.62,0,0,0,22.6,3.23c2.34.19,4.29.31,5.67.41,3.42.22,9-22.36,6.6-25.11-.56-.63-2.81-1.12-6-1.52-10.64-1.33-31.6-1.65-32.85-2.84s-8-10.18-17.2-21.93c-6.32-8.12-11.5-10.51-13.62-8.26C212.92,201.5,212.71,204.26,213.81,208.29Z" style="fill:#eb9481"></path><path d="M270.29,257.6a82.53,82.53,0,0,0,10.17,3.75c2.77.69,10.78,2.47,11.84-.5.73-2-3.86-3.63-7.08-4.83-1.69-.63-3.82-2.31-3.36-3.4.79-1.91,5.16-.18,8.05,1.36,5.58,3,13.08,8.42,16.32,5.53,1.22-1.1-.32-2.95-2.53-4.75,3.56,2.06,7.34,3.71,8.74,2.55a1.84,1.84,0,0,0,.32-2.51,2.42,2.42,0,0,0,2.67-.52c1.09-1.22.47-2.95-.83-4.7a1.34,1.34,0,0,0,1-.71c2.26-3.74-10.12-13.79-14.3-14.61-12.31-2.45-25.25-.92-25.25-.92C271.4,237.35,270.28,257.59,270.29,257.6Z" style="fill:#eb9481"></path><path d="M287.82,245.56a19.91,19.91,0,0,1,8.25,2.84c2.92,1.85,5.28,4.44,8,6.55.08.06,0,.17-.09.11-1.28-1.1-2.68-2.07-4-3.12s-2.56-2.09-3.92-3a19.78,19.78,0,0,0-8.24-3.31S287.78,245.56,287.82,245.56Z" style="fill:#263238"></path><path d="M289.9,240.3a49.9,49.9,0,0,1,9.59,2.93c3.32,1.54,6,4.16,8.57,6.67q2.34,2.26,4.59,4.63c.06.06,0,.17-.1.11q-4-3.9-8.16-7.55a26,26,0,0,0-8.83-5.12c-1.86-.64-3.77-1.12-5.67-1.61C289.85,240.35,289.86,240.3,289.9,240.3Z" style="fill:#263238"></path><path d="M293.16,235.65c3.14.52,5.88,1,8.7,2.54a45.15,45.15,0,0,1,8.68,6.94c1.42,1.41,2.79,2.87,4.14,4.34.06.06-.05.16-.1.1a103.07,103.07,0,0,0-9.86-9.06,20.32,20.32,0,0,0-5.44-3.26,36.78,36.78,0,0,0-6.13-1.58S293.14,235.65,293.16,235.65Z" style="fill:#263238"></path><path d="M213.81,208.29c5.73,20.88,10.51,37.06,16.49,41,4.83,3.17,11.61,5.4,18.58,7l-34.77-56C212.92,201.5,212.71,204.26,213.81,208.29Z" style="fill:#263238"></path><path d="M212,204.77c.6,6.36,4.77,17.3,4.77,17.3l22.07-1.87s-8.53-12.5-17.41-19.61a12.16,12.16,0,0,0-2.73-1.67C214.83,197.26,211.44,198.81,212,204.77Z" style="fill:#FFC727"></path><path d="M212,204.77c0,.33.07.68.13,1s.1.55.16.84a101.93,101.93,0,0,0,4.48,15.43l.88-.07.86-.07,6.94-.59,1-.09,6.91-.59.89-.07,2.54-.22L218.7,198.92C214.83,197.26,211.39,198.82,212,204.77Z" style="fill:#263238"></path><path d="M372.23,434.5c-2.38.79-72.25.21-74.83-1.46-.31-.18-.39-6.5-.36-15.15v-.17a172.08,172.08,0,0,0-1.2-18.27l-.12-1c-1.84-16.13-5-31.81-5-31.81l43.73-.16,6,32,.11,1,1.23,11.92s9.42,4,17.62,7.93l0,0c5.06,2.42,9.45,4.63,10.46,5.44C372.54,426.88,374.61,433.73,372.23,434.5Z" style="fill:#eb9481"></path><path d="M372.23,434.5c-2.38.79-72.25.21-74.83-1.46-.31-.18-.39-6.5-.36-15.15v-.17a172.08,172.08,0,0,0-1.2-18.27l-.12-1h44.76l.11,1,1.23,11.92s9.42,4,17.62,7.93l0,0c5.06,2.42,9.45,4.63,10.46,5.44C372.54,426.88,374.61,433.73,372.23,434.5Z" style="fill:#ebebeb"></path><path d="M372.52,434.77c-2.45.79-72.41,0-75.06-1.68-1-.64-1.94-11.44-.86-23.36l45.1.54s25.79,12.27,28.5,14.46S375,434,372.52,434.77Z" style="fill:#FFC727"></path><path d="M371.55,432c-11.73-.42-59.05-1-70.67-.5-.1,0-.1.07,0,.07,11.61.67,58.94.85,70.66.62C371.79,432.14,371.79,432,371.55,432Z" style="fill:#263238"></path><path d="M365.72,422.16a9.41,9.41,0,0,0-7,2.79,9.1,9.1,0,0,0-2.69,6.24c0,.07.13.07.14,0a10.89,10.89,0,0,1,9.59-8.88A.08.08,0,0,0,365.72,422.16Z" style="fill:#263238"></path><path d="M345.37,411.48c-4.69-.11-10.15,1.49-13.11,5.29-.11.15.1.31.24.24a64.57,64.57,0,0,1,12.95-4.95A.3.3,0,0,0,345.37,411.48Z" style="fill:#263238"></path><path d="M349,412.94c-4.69-.12-10.15,1.48-13.11,5.29-.12.14.1.3.24.23a65.33,65.33,0,0,1,12.94-4.95A.29.29,0,0,0,349,412.94Z" style="fill:#263238"></path><path d="M352.59,414.39c-4.7-.12-10.16,1.48-13.11,5.29-.12.14.09.31.23.24a64.43,64.43,0,0,1,13-4.95A.3.3,0,0,0,352.59,414.39Z" style="fill:#263238"></path><path d="M356.2,415.84c-4.7-.12-10.16,1.48-13.11,5.29-.12.15.09.31.23.24a64.43,64.43,0,0,1,12.95-4.95A.3.3,0,0,0,356.2,415.84Z" style="fill:#263238"></path><path d="M304,420.35c-5.26,0-5.34,8.15-.06,8.19S309.26,420.4,304,420.35Z" style="fill:#263238"></path><path d="M350.58,399c-2.36-2-5.37-.1-6.86,1.93a24.55,24.55,0,0,0-4.39,12,.12.12,0,0,0,.14.13.57.57,0,0,0,.84.39c3.37-2.27,7.25-4.29,9.82-7.53C351.63,404,352.81,400.9,350.58,399Zm-5.87,9.92c-1.63,1.16-3.3,2.23-4.89,3.45.87-2.33,1.62-4.69,2.72-6.93a26.88,26.88,0,0,1,1.75-3.15c1-1.54,5.69-5.41,6.1-.3C350.62,404.82,346.65,407.55,344.71,408.93Z" style="fill:#263238"></path><path d="M327.65,414.51c4.08.67,8.31-.44,12.33-1a.58.58,0,0,0,.36-.86.12.12,0,0,0,0-.19,24.68,24.68,0,0,0-11.3-5.9c-2.46-.5-6,.12-6.37,3.19C322.31,412.62,325.27,414.12,327.65,414.51Zm-2.81-2.7c-3.13-4.06,2.92-4.32,4.72-3.88a27.38,27.38,0,0,1,3.41,1.16c2.32.92,4.46,2.15,6.67,3.29-2,.17-3.95.5-5.94.74C331.33,413.4,326.57,414.05,324.84,411.81Z" style="fill:#263238"></path><path d="M344.11,395l-50.71-.22s-17.57-67.62-21.69-72.35c-7.63-8.76-68.28-4.52-84.75-22.69-16-17.6,0-49.46,0-49.46h44.91a156.23,156.23,0,0,0,2.56,17.1s56.51,9,73.29,26.39C320.53,307,344.11,395,344.11,395Z" style="fill:#37474f"></path><path d="M340.62,387c-3.13-.25-6.24-.57-9.37-.7s-6.28-.19-9.42-.24q-9.36-.15-18.71,0c-3.52.07-7,.22-10.57.24-.09,0-.07.16,0,.16,6.33,0,12.68.25,19,.41s12.39.36,18.59.46c3.49.05,7-.05,10.45-.08C340.77,387.29,340.77,387,340.62,387Z" style="fill:#263238"></path><path d="M286.36,344.19q-3-9.76-6.53-19.36c-1-2.73-1.82-5.85-3.78-8.08s-4.81-2.9-7.52-3.49c-13-2.87-26.28-4-39.37-6.27A139.64,139.64,0,0,1,210,302.44a48.26,48.26,0,0,1-8.88-3.7,25.3,25.3,0,0,1-6.75-5.56A30.71,30.71,0,0,1,187.69,278a45.75,45.75,0,0,1,1.75-19.65c.46-1.55,1-3.09,1.57-4.6,0-.09-.11-.13-.15,0-4.38,11.39-6.18,24.54,0,35.64a26.67,26.67,0,0,0,5,6.46,27.41,27.41,0,0,0,7.42,4.9c5.85,2.73,12.29,4.35,18.58,5.71,13,2.8,26.35,3.91,39.47,6.24a95.93,95.93,0,0,1,9.5,2,10.13,10.13,0,0,1,4.05,2,10.26,10.26,0,0,1,2.49,3.79c1.28,3.05,2.3,6.23,3.39,9.36s2.24,6.48,3.3,9.73q6.36,19.55,11.2,39.54l1.17,4.87c0,.16.27.09.24-.07A401.75,401.75,0,0,0,286.36,344.19Z" style="fill:#263238"></path><path d="M295.9,446.3c-2.46.51-71.76-8.35-74.13-10.31-.28-.22.46-6.49,1.44-15.09.57-5,1.71-11.27,3-17.65,3.57-16.95,8.63-35,8.63-35l45.43,7.58-9.19,32.28-3.15,11s9.34,5.65,17,10.54l0,0c4.73,3,8.84,5.72,9.74,6.64C297.12,438.77,298.36,445.81,295.9,446.3Z" style="fill:#eb9481"></path><path d="M295.9,446.3c-2.46.51-71.76-8.35-74.13-10.31-.28-.22.46-6.49,1.44-15.09.57-5,1.71-11.27,3-17.65l44.87,4.85-3.15,11s9.34,5.65,17,10.54l0,0c4.73,3,8.84,5.72,9.74,6.64C297.12,438.77,298.36,445.81,295.9,446.3Z" style="fill:#ebebeb"></path><path d="M296.19,446.54c-2.53.51-71.94-8.26-74.38-10.27-.92-.76.11-11.51,2.55-23.22l43.75,5.63S292.59,433.82,295,436.3,298.71,446,296.19,446.54Z" style="fill:#FFC727"></path><path d="M295.54,443.64c-11.6-1.76-58.55-7.74-70.15-8.6-.09,0-.1.06,0,.08,11.45,2,58.45,7.59,70.13,8.71C295.76,443.85,295.79,443.68,295.54,443.64Z" style="fill:#263238"></path><path d="M290.88,433.24a9.39,9.39,0,0,0-7.32,2,9.17,9.17,0,0,0-3.39,5.88c0,.07.13.09.15,0a10.88,10.88,0,0,1,10.54-7.72A.08.08,0,0,0,290.88,433.24Z" style="fill:#263238"></path><path d="M271.89,420.3c-4.65-.65-10.26.31-13.63,3.75-.14.14.06.32.2.27a65.4,65.4,0,0,1,13.43-3.44A.29.29,0,0,0,271.89,420.3Z" style="fill:#263238"></path><path d="M275.3,422.16c-4.64-.66-10.25.31-13.63,3.75-.13.13.06.32.21.26a64.75,64.75,0,0,1,13.43-3.43A.29.29,0,0,0,275.3,422.16Z" style="fill:#263238"></path><path d="M278.72,424c-4.65-.65-10.25.31-13.63,3.75-.13.14.06.32.21.27a64.59,64.59,0,0,1,13.43-3.43A.3.3,0,0,0,278.72,424Z" style="fill:#263238"></path><path d="M282.14,425.87c-4.65-.66-10.25.31-13.63,3.75-.13.13.06.32.21.26a64.59,64.59,0,0,1,13.43-3.43A.29.29,0,0,0,282.14,425.87Z" style="fill:#263238"></path><path d="M229.75,424.37c-5.22-.65-6.23,7.47-1,8.12S235,425,229.75,424.37Z" style="fill:#263238"></path><path d="M278.49,408.51c-2.11-2.25-5.32-.72-7,1.13A24.65,24.65,0,0,0,265.72,421a.12.12,0,0,0,.13.15.58.58,0,0,0,.79.49c3.61-1.88,7.69-3.44,10.62-6.36C279,413.58,280.49,410.64,278.49,408.51Zm-7,9.18c-1.76,1-3.54,1.83-5.26,2.86,1.13-2.21,2.15-4.46,3.5-6.57a25.1,25.1,0,0,1,2.1-2.92c1.2-1.41,6.26-4.73,6.09.4C277.86,414.28,273.61,416.53,271.53,417.69Z" style="fill:#263238"></path><path d="M253.93,421.28c4,1.13,8.31.51,12.37.39a.57.57,0,0,0,.46-.8.13.13,0,0,0,0-.2,24.63,24.63,0,0,0-10.54-7.15c-2.39-.78-5.94-.56-6.69,2.43S251.61,420.61,253.93,421.28Zm-2.47-3c-2.65-4.39,3.39-4,5.13-3.31a26.77,26.77,0,0,1,3.25,1.54,73.2,73.2,0,0,1,6.25,4c-2-.07-4,0-6,0C257.72,420.6,252.92,420.69,251.46,418.27Z" style="fill:#263238"></path><path d="M282.4,406.18l-55.3-6.73s19.27-76.12,18.4-77.26c-3.05-3.94-49.71-2.35-65.62-18.17-16.85-16.75-.68-53.78-.68-53.78l42,.16s.28,16.6,2.17,18.16c1.25,1,59.27,10.83,68.71,23.15C306.47,310.53,282.4,406.18,282.4,406.18Z" style="fill:#37474f"></path><path d="M296,298.5a20.47,20.47,0,0,0-3.34-5.8,23.66,23.66,0,0,0-5.57-4.74,81.45,81.45,0,0,0-13.92-6.71,148.68,148.68,0,0,0-15.1-5.07c-5.19-1.46-10.45-2.69-15.72-3.82s-10.54-2-15.82-3l-2.49-.46c2.72-1.08,5.42-2.22,8.14-3.34a.14.14,0,0,0-.08-.26,43.77,43.77,0,0,0-15.45,6.16c-.07,0,0,.17.06.14,2.36-.77,4.68-1.65,7-2.56,4.79,1,9.55,2.07,14.32,3.13,5.16,1.15,10.3,2.37,15.38,3.81,10.08,2.86,20.1,6.22,29.42,11.06,4.22,2.19,8.21,4.93,10.58,9.17,2.2,3.93,2.86,8.53,3,13a131.36,131.36,0,0,1-.85,15q-.76,8.46-1.78,16.89c-.69,5.62-4.64,35.08-5.09,36.34-.06.17.23.29.31.12.58-1.2,7.41-43.76,7.92-49.48.47-5.27,1-10.57,1.06-15.86A36.61,36.61,0,0,0,296,298.5Z" style="fill:#263238"></path><path d="M251.68,316.07a27,27,0,0,0-4.48-.8l-5-.79-9.95-1.58c-6.37-1-12.76-1.94-19.11-3.06-10.83-1.92-22.6-5.41-28.83-15.26a20.87,20.87,0,0,1-2.91-7.44,60.54,60.54,0,0,1-.67-9.8A124.27,124.27,0,0,1,182,257.59c.23-1.61.52-3.2.83-4.79,0-.1-.13-.14-.15,0a133.56,133.56,0,0,0-2.35,19.33q-.21,4.86,0,9.72a29.42,29.42,0,0,0,1.34,8.79c3.56,10.27,14,15.82,23.91,18.36,6.11,1.57,12.4,2.37,18.63,3.34l19.63,3.08,4.9.77c1.32.21,3.71.16,4,1.86a5.53,5.53,0,0,1-.2,2.06c-.19.86-.37,1.71-.56,2.57l-1.08,5q-2.12,9.75-4.17,19.51c-2.79,13.1-5.41,26.24-8.12,39.36l-1,4.88c0,.08.11.12.13,0,2.87-13.07,5.8-26.14,8.64-39.22q2.16-9.88,4.22-19.78c.69-3.26,1.37-6.51,2-9.77a19.72,19.72,0,0,0,.77-4.29A2.38,2.38,0,0,0,251.68,316.07Z" style="fill:#263238"></path><path d="M281.22,399.38c-3.23-.68-6.45-1.43-9.71-2s-6.54-1.07-9.82-1.55q-9.76-1.45-19.59-2.57c-3.69-.43-7.4-.77-11.09-1.23-.1,0-.1.14,0,.15,6.63.84,13.23,2,19.83,3.05s12.92,2.08,19.4,3c3.64.54,7.29.92,10.94,1.38C281.34,399.68,281.37,399.42,281.22,399.38Z" style="fill:#263238"></path><path d="M234.59,259.47a81.61,81.61,0,0,1-8.81,1.25c-4.65.46-11.14.88-19.52.87h-.68l-3.25,0c-7.75-.13-16.92-.6-27.53-1.67,0,0,12.28-45.25,24.82-60,.28-.34.57-.66.86-1l.17-.18a13.39,13.39,0,0,1,3.35-2.59c.22-.12.44-.23.67-.33,4.83-2.22,9.93-.38,13.61,2.77,1.17,1,14.39,18.2,15.56,24.76,1,5.79-2.9,12-2.9,12Z" style="fill:#FFC727"></path><path d="M206.26,261.59h-.68l-3.25,0c-7.75-.13-16.92-.6-27.53-1.67,0,0,12.28-45.25,24.82-60,.28-.34.57-.66.86-1l.17-.18a13.39,13.39,0,0,1,3.35-2.59c.22-.12.44-.23.67-.33Z" style="fill:#263238"></path><path d="M196.08,204.09C185,221,171.94,250,180,255c13.19,8.19,48.69,9.23,56.79,9.14,3.5,0,7.43-23.45,4.74-26.06s-39.7.19-40.26-2c-.31-1.26,2.62-12.89,4.41-27C207.71,192.71,199.22,199.31,196.08,204.09Z" style="fill:#eb9481"></path><path d="M235.24,237s10.53-1.47,17.47-2.11c3.87-.35,10.56-.37,13.52.66,4.43,1.56,22,10.88,19.8,15.19-2,3.89-16-6-16-6s15.06,8.77,11.83,13-17.61-9.07-17.61-9.07,15.28,9.35,11.26,13.21c-3,2.91-16.75-8.42-16.75-8.42s13.07,8.13,10.08,11.26c-3.31,3.47-16.62-6.2-16.62-6.2-9,6.68-16,6.2-20.9,5.27C230.11,263.53,235.24,237,235.24,237Z" style="fill:#eb9481"></path><path d="M265,241.33c1.81,1,3.64,1.93,5.36,3s3.39,2.31,5,3.58a34.76,34.76,0,0,1,5.76,5.57c-3.29-3.45-9.36-7.57-11.08-8.69s-3.36-2.33-5.08-3.45C264.91,241.36,265,241.31,265,241.33Z" style="fill:#263238"></path><path d="M260.83,247.45c2.26,1.33,4.54,2.57,6.74,4s5.18,3.53,7.26,5.1c.16.12.05.4-.11.29-2.14-1.49-5.3-3.49-7.46-4.95s-4.26-3-6.46-4.39C260.76,247.48,260.8,247.43,260.83,247.45Z" style="fill:#263238"></path><path d="M256.31,252.06a58.86,58.86,0,0,1,9.84,6.91c.15.12,0,.17-.17,0-3.23-2.36-5.74-4.24-9.73-6.84C256.19,252.14,256.24,252,256.31,252.06Z" style="fill:#263238"></path><path d="M235.17,236.86c4.8-.67,17.48-2.57,22.32-2.84a22.61,22.61,0,0,1,11.8,2.11,56.6,56.6,0,0,1,15.48,10.94c.88,1,2.19,2.53,1.36,3.85-1,1.61-5.64.78-10.87-2.83-.19-.13-.1-.24.09-.13,7.27,4.46,9.81,3.5,10.37,2.5.37-.65-.19-1.61-.69-2.34a15.4,15.4,0,0,0-2.74-2.79,66.1,66.1,0,0,0-11.09-7.4,25.73,25.73,0,0,0-13.95-3.23c-5,.24-17.11,2.17-22.08,2.34C235.07,237.05,235.06,236.87,235.17,236.86Z" style="fill:#263238"></path><path d="M282.36,255.49a10.77,10.77,0,0,0-2.44-3.33,24.66,24.66,0,0,0-3.62-3.38c-.06,0-.14,0-.08.09a38.57,38.57,0,0,1,3.24,3.28,20.85,20.85,0,0,1,1.5,2,3.85,3.85,0,0,1,.89,2.29c-.14,1.61-2.13,1.83-3.36,1.57a13.86,13.86,0,0,1-2.33-.78,22.57,22.57,0,0,1-3-1.67c-.08-.06-.26,0-.18.05,2,1.44,5.75,4.47,8.29,2.84A2.47,2.47,0,0,0,282.36,255.49Z" style="fill:#263238"></path><path d="M180.9,222.55l23.37-.25,2.37-17.37c1.08-8,.47-13.05-8.92-4.24C191.21,206.8,180.9,222.55,180.9,222.55Z" style="fill:#FFC727"></path><path d="M208.49,194.86c-4.58,1.31-4.12,6.46-2.41,10.08s5.07,7.81,7.52,7.69,2.91-6.28,2.91-6.28,3.49,3.82,5.32,2.49-1.84-8.36-4.45-10.54C213.6,195.13,210.91,194.16,208.49,194.86Z" style="fill:#fff"></path><path d="M206,197.77c.2,1.1,5.09,8.4,10.07,8.39,1.63,0,2-8.88,2-8.88l.17-.65,2.46-9.08-10.46-7.39-1.52-1s-.51,2.53-1.11,5.69l-.09.45c0,.18-.07.34-.1.51-.1.47-.19,1-.28,1.43s-.13.72-.19,1.11-.12.76-.19,1.15A60.38,60.38,0,0,0,206,197.77Z" style="fill:#eb9481"></path><path d="M207.58,184.86a18.85,18.85,0,0,0,10.63,11.77l2.46-9.08-10.46-7.39-1.52-1S208.18,181.7,207.58,184.86Z" style="fill:#263238"></path><path d="M233.82,173.45c.76,16.49-9,18.82-12.59,19-3.23.14-14.24.23-16.71-16.1s5-21.9,12.33-22.62S233.05,157,233.82,173.45Z" style="fill:#eb9481"></path><path d="M231.36,170.71a10.52,10.52,0,0,1-1.12-.21,1.87,1.87,0,0,1-1.11-.43.6.6,0,0,1,0-.72,1.46,1.46,0,0,1,1.42-.37,2.19,2.19,0,0,1,1.37.72A.63.63,0,0,1,231.36,170.71Z" style="fill:#263238"></path><path d="M220.79,171a10.52,10.52,0,0,0,1.11-.26,1.86,1.86,0,0,0,1.08-.49.57.57,0,0,0,0-.71,1.46,1.46,0,0,0-1.44-.31,2.21,2.21,0,0,0-1.33.79A.63.63,0,0,0,220.79,171Z" style="fill:#263238"></path><path d="M222.86,174.94c0-.05-.09.05-.08.1.09,1.12,0,2.42-1,2.84,0,0,0,.07,0,.06C223,177.71,223.12,176,222.86,174.94Z" style="fill:#263238"></path><path d="M221.8,173.81c-1.81-.05-1.78,3.58-.1,3.63S223.32,173.85,221.8,173.81Z" style="fill:#263238"></path><path d="M221.09,174c-.32.21-.62.57-1,.61s-.78-.33-1.07-.69c0,0-.06,0-.06,0,0,.7.27,1.41,1,1.51s1.16-.53,1.33-1.23C221.33,174.12,221.21,173.93,221.09,174Z" style="fill:#263238"></path><path d="M229,174.65c0-.05.09,0,.09.1,0,1.12.11,2.41,1.13,2.79a0,0,0,0,1,0,.06C229,177.43,228.79,175.71,229,174.65Z" style="fill:#263238"></path><path d="M230,173.47c1.81-.14,1.95,3.49.28,3.62S228.49,173.59,230,173.47Z" style="fill:#263238"></path><path d="M230.77,173.68c.29.18.59.52.93.53s.68-.4.92-.78c0,0,0,0,0,0,.05.7-.15,1.43-.81,1.59s-1.07-.43-1.26-1.12C230.56,173.81,230.65,173.61,230.77,173.68Z" style="fill:#263238"></path><path d="M222.87,183.61c.26.27.52.64.92.69a2.86,2.86,0,0,0,1.22-.24,0,0,0,0,1,.05.06,1.52,1.52,0,0,1-1.45.56,1.21,1.21,0,0,1-.85-1C222.75,183.59,222.83,183.57,222.87,183.61Z" style="fill:#263238"></path><path d="M227.32,180s.26,1.67.28,2.46c0,.08-2.87.73-4.17-1.19a.08.08,0,0,1,.11-.11,5.68,5.68,0,0,0,3.46.91c.05-.22-.55-2.85-.43-2.86a6.63,6.63,0,0,1,1.81.37c-.45-3.5-1.46-6.91-1.86-10.4a.11.11,0,0,1,.2-.06,56.51,56.51,0,0,1,2.49,11.12C229.28,180.7,227.64,180.14,227.32,180Z" style="fill:#263238"></path><path d="M228.19,175.34c-.07-2.59,1.26-4.73,3-4.78s3.17,2,3.24,4.6-1.26,4.73-3,4.78S228.27,177.92,228.19,175.34Zm.63,0c.07,2.24,1.23,4,2.59,4s2.43-1.89,2.36-4.13-1.22-4-2.59-4S228.76,173.08,228.82,175.32Z" style="fill:#37474f"></path><path d="M216.4,175.67a4.39,4.39,0,1,1,4.52,4.57A4.55,4.55,0,0,1,216.4,175.67Zm.63,0a3.76,3.76,0,1,0,3.64-4.17A3.92,3.92,0,0,0,217,175.66Z" style="fill:#37474f"></path><path d="M224.94,175c2.33-.89,3.41-.16,3.42-.15l.37-.5s-1.33-1-4,.06Z" style="fill:#37474f"></path><path d="M216.71,175.26l.09-.63c-.41-.06-10-1.55-11.07-1.58s-3.62,1.47-3.9,1.65l.32.53a12.12,12.12,0,0,1,3.51-1.55h.05C206.51,173.7,213.25,174.72,216.71,175.26Z" style="fill:#37474f"></path><path d="M205.77,176.88c4,0,5.65-12.41,5.83-13.94-.07,1-.38,6.09,0,6.31a4,4,0,0,0,1.28-.2h0a11.94,11.94,0,0,1,.21-1.83c0-.28.09.62.21,1.73l.75-.18a14.79,14.79,0,0,1,.52-3.88c.13-.48.19,1.7.59,3.62A48.4,48.4,0,0,1,225.83,167a26.24,26.24,0,0,1,2.65.1c.06-1.52-.06-3.13,0-2.78a14.86,14.86,0,0,1,.54,2.83l1.14.12c.18-2.13-.72-5.57-.4-5a15.07,15.07,0,0,1,1.89,5.33c1.45.33,1.84.63,1.89.25a17.78,17.78,0,0,0-5.05-11.22c-4.9-4.94-14.95-6.47-20.89.68,0,0-4.79,2.9-5.69,7.8S203.43,176.89,205.77,176.88Z" style="fill:#263238"></path><path d="M207.2,176.24s-3.39-5.29-5.78-4.1,0,8.76,2.72,9.89a2.79,2.79,0,0,0,3.8-1.35Z" style="fill:#eb9481"></path><path d="M202.17,174.29s-.06.06,0,.07c1.89.86,2.83,2.69,3.47,4.56a1.55,1.55,0,0,0-2.29-.51c-.05,0,0,.11,0,.1a1.73,1.73,0,0,1,1.86.68,8.37,8.37,0,0,1,.84,1.56c.09.18.4.1.34-.1v-.05C206.56,178.15,204.79,174.64,202.17,174.29Z" style="fill:#263238"></path></g><g id="freepik--Devices--inject-6"><rect x="181.58" y="257.76" width="58.24" height="2.61" style="fill:#455a64"></rect><rect x="210.51" y="257.76" width="29.31" height="2.61" style="fill:#263238"></rect><polygon points="211.19 260.37 154.43 260.37 146.41 221.83 203.17 221.83 211.19 260.37" style="fill:#37474f"></polygon><path d="M183.2,242a3.34,3.34,0,0,1-3.39,3.78,4.31,4.31,0,0,1-4.18-3.78,3.34,3.34,0,0,1,3.39-3.78A4.3,4.3,0,0,1,183.2,242Z" style="fill:#fff"></path><polygon points="321.84 260.38 274.54 260.38 274.54 256.7 321.84 255.17 321.84 260.38" style="fill:#37474f"></polygon><polygon points="370.33 244.27 287.49 244.27 300.66 182.59 383.51 182.59 370.33 244.27" style="fill:#455a64"></polygon><polygon points="373.4 244.27 290.55 244.27 303.73 182.59 386.58 182.59 373.4 244.27" style="fill:#37474f"></polygon><polygon points="328.71 222.15 326.77 222.15 329.72 208.31 331.67 208.31 328.71 222.15" style="fill:#263238"></polygon><polygon points="332.55 222.15 330.61 222.15 333.56 208.31 335.5 208.31 332.55 222.15" style="fill:#263238"></polygon><polygon points="336.38 222.15 334.44 222.15 337.39 208.31 339.33 208.31 336.38 222.15" style="fill:#263238"></polygon><polygon points="340.22 222.15 338.27 222.15 341.22 208.31 343.17 208.31 340.22 222.15" style="fill:#263238"></polygon><polygon points="344.05 222.15 342.11 222.15 345.06 208.31 347 208.31 344.05 222.15" style="fill:#263238"></polygon><polygon points="347.88 222.15 345.94 222.15 348.89 208.31 350.83 208.31 347.88 222.15" style="fill:#263238"></polygon><polygon points="351.72 222.15 349.77 222.15 352.73 208.31 354.67 208.31 351.72 222.15" style="fill:#263238"></polygon><polygon points="349.97 260.38 309.22 260.38 309.22 257.21 349.97 255.89 349.97 260.38" style="fill:#455a64"></polygon><polygon points="361.05 260.37 339.17 260.37 325.99 225.81 347.87 225.81 361.05 260.37" style="fill:#455a64"></polygon><polygon points="364.65 260.37 342.77 260.37 329.59 225.81 351.47 225.81 364.65 260.37" style="fill:#263238"></polygon><polygon points="122.87 244.27 148.44 244.27 135.26 182.59 109.69 182.59 122.87 244.27" style="fill:#455a64"></polygon><polygon points="119.8 244.27 145.37 244.27 132.2 182.59 106.63 182.59 119.8 244.27" style="fill:#37474f"></polygon><polygon points="123.29 222.15 123.65 222.15 120.7 208.31 120.34 208.31 123.29 222.15" style="fill:#263238"></polygon><polygon points="124.06 222.15 124.42 222.15 121.47 208.31 121.11 208.31 124.06 222.15" style="fill:#263238"></polygon><polygon points="124.83 222.15 125.2 222.15 122.25 208.31 121.89 208.31 124.83 222.15" style="fill:#263238"></polygon><polygon points="125.61 222.15 125.97 222.15 123.02 208.31 122.66 208.31 125.61 222.15" style="fill:#263238"></polygon><polygon points="126.38 222.15 126.75 222.15 123.8 208.31 123.43 208.31 126.38 222.15" style="fill:#263238"></polygon><polygon points="127.16 222.15 127.52 222.15 124.57 208.31 124.21 208.31 127.16 222.15" style="fill:#263238"></polygon><polygon points="127.93 222.15 128.29 222.15 125.34 208.31 124.98 208.31 127.93 222.15" style="fill:#263238"></polygon><polygon points="128.7 222.15 129.07 222.15 126.12 208.31 125.75 208.31 128.7 222.15" style="fill:#263238"></polygon><polygon points="119.31 260.38 149.9 260.38 149.9 257.21 119.31 255.89 119.31 260.38" style="fill:#455a64"></polygon><polygon points="108.23 260.37 119.95 260.37 133.13 225.81 121.41 225.81 108.23 260.37" style="fill:#455a64"></polygon><polygon points="108.23 260.37 116.35 260.37 129.52 225.81 121.41 225.81 108.23 260.37" style="fill:#263238"></polygon><path d="M270,260.41h-31.2c-2.67,0,1.19-7.59,10.91-10.49S273,257.56,270,260.41Z" style="fill:#37474f"></path><path d="M257.72,260.41a7.48,7.48,0,0,1,.22-2.62,9.29,9.29,0,0,1,1-2.44,7.88,7.88,0,0,1,1.74-2,6.09,6.09,0,0,1,2.34-1.21,20.14,20.14,0,0,0-1.8,1.77,13.76,13.76,0,0,0-1.42,2A27.48,27.48,0,0,0,257.72,260.41Z" style="fill:#263238"></path><path d="M261.41,253.19a13.09,13.09,0,0,1,2.8.91,16.24,16.24,0,0,1,2.56,1.46,9.63,9.63,0,0,1,2.17,2.06,4.2,4.2,0,0,1,1,2.79,6.31,6.31,0,0,0-1.6-2.28,17.66,17.66,0,0,0-2.17-1.75C264.66,255.28,263,254.31,261.41,253.19Z" style="fill:#263238"></path></g><g id="freepik--Desk--inject-6"><rect x="96.73" y="383.7" width="26.49" height="4.66" style="fill:#455a64"></rect><polygon points="137.58 451.85 134.72 451.85 111.39 342.94 110.06 336.73 105.87 317.18 104.31 309.89 98.44 282.53 96.39 272.95 106.58 272.95 108.24 282.53 109.33 288.82 110.06 293.01 114.24 317.18 115.59 324.96 137.58 451.85" style="fill:#455a64"></polygon><polygon points="106.58 272.95 108.24 282.53 98.44 282.53 96.39 272.95 106.58 272.95" style="fill:#263238"></polygon><polygon points="115.59 324.96 111.39 342.94 110.06 336.73 105.87 317.18 104.31 309.89 109.33 288.82 110.06 293.01 114.24 317.18 115.59 324.96" style="fill:#263238"></polygon><polygon points="123.72 272.95 121.67 282.53 114.24 317.18 110.06 336.73 85.39 451.85 82.54 451.85 105.87 317.18 110.06 293.01 111.87 282.53 113.53 272.95 123.72 272.95" style="fill:#455a64"></polygon><polygon points="123.72 272.95 121.67 282.53 111.87 282.53 113.53 272.95 123.72 272.95" style="fill:#263238"></polygon><polygon points="403.61 272.95 365.28 451.85 362.43 451.85 393.42 272.95 403.61 272.95" style="fill:#455a64"></polygon><polygon points="376.28 272.95 414.61 451.85 417.46 451.85 386.47 272.95 376.28 272.95" style="fill:#455a64"></polygon><rect x="376.62" y="383.7" width="26.49" height="4.66" style="fill:#455a64"></rect><rect x="80.73" y="260.38" width="338.54" height="12.57" style="fill:#455a64"></rect></g><g id="freepik--Plant--inject-6"><path d="M78.26,371.65c-7.32-15-20.12-22.77-34.56-18.5S27,377.55,37.81,382.63s21.55-9.76,27.24-12.81S78.26,371.65,78.26,371.65Z" style="fill:#FFC727"></path><path d="M85.35,411.7c0-1.82-.11-3.63-.18-5.44q-.18-5.43-.38-10.86c-.25-6.63-1-13.13-3.7-19.23a29.79,29.79,0,0,0-11.61-13.38,24.62,24.62,0,0,0-6.11-2.64,14.29,14.29,0,0,0-7.12-3.91A29.08,29.08,0,0,0,46.1,356c-.12,0-.12.2,0,.19a24.54,24.54,0,0,1,9.61.68,20,20,0,0,1,3.87,1.51,17.3,17.3,0,0,1,2.24,1.42,20.83,20.83,0,0,0-8.82.08,20.3,20.3,0,0,0-3.06,1,9,9,0,0,0-2.41-.2,14.31,14.31,0,0,0-3.12.44,23.47,23.47,0,0,0-5.94,2.6c-.11.06,0,.22.1.16a22.26,22.26,0,0,1,5.79-2.18,18.79,18.79,0,0,1,3-.44,15.32,15.32,0,0,1,1.66,0,19.18,19.18,0,0,0-9.33,9.3c-.05.11.11.21.16.09a17.55,17.55,0,0,1,11.9-9.53c.31-.08.64-.12,1-.19-.11.47-.09,1-.15,1.46-.1.73-.22,1.46-.37,2.18A37.18,37.18,0,0,1,51,369a35.12,35.12,0,0,1-1.75,4.27,21.09,21.09,0,0,1-2.44,4.12c-.09.1.08.23.15.11.87-1.36,1.88-2.61,2.67-4a30.77,30.77,0,0,0,1.95-4.2,28.3,28.3,0,0,0,1.29-4.51c.16-.81.29-1.63.38-2.45a5.32,5.32,0,0,0,.09-1.49,19.57,19.57,0,0,1,5.13-.11c-.64,3.59-1.33,7.33-3.34,10.45-.07.1.11.2.17.09a44,44,0,0,0,2.48-5.13A19.63,19.63,0,0,0,59,360.77a23.82,23.82,0,0,1,8.48,2.84A28,28,0,0,1,78.77,376,46.32,46.32,0,0,1,83,393.65c.48,7.69.58,15.42,1.35,23.09,0,.5.84.67.94.1A27.56,27.56,0,0,0,85.35,411.7Z" style="fill:#263238"></path><path d="M68.43,361.58a8.05,8.05,0,0,0-1.66-1.53c-.6-.5-1.21-1-1.86-1.42a13.84,13.84,0,0,0-4.16-1.93c-.12,0-.16.16,0,.19a11,11,0,0,1,4.1,2c.61.45,1.2.93,1.77,1.43a10.8,10.8,0,0,0,1.68,1.42C68.37,361.82,68.51,361.69,68.43,361.58Z" style="fill:#263238"></path><path d="M45.07,367a43.87,43.87,0,0,0-3.35,4.45,26.72,26.72,0,0,0-2.5,4.95c0,.05.06.08.09,0a59.07,59.07,0,0,1,5.9-9.29C45.29,367.07,45.15,366.94,45.07,367Z" style="fill:#263238"></path><path d="M60.82,365.55a11,11,0,0,1-.83,2.72,17.51,17.51,0,0,1-1.39,2.41.05.05,0,0,0,.08.06A9.76,9.76,0,0,0,61,365.59C61,365.47,60.84,365.42,60.82,365.55Z" style="fill:#263238"></path><path d="M84.33,372s10.36-13,30.36-8.41c19,4.39,27.78,39.25,8.57,43.42s-15.82-28.09-22.82-33.56C95.3,369.45,87.92,370.32,84.33,372Z" style="fill:#FFC727"></path><path d="M130.14,382.65a39.45,39.45,0,0,0-4.12-3.16,18.09,18.09,0,0,0-4.4-2.19A26.33,26.33,0,0,0,119,374a25.84,25.84,0,0,0-6-4.82l.6,0a30.71,30.71,0,0,1,3.18,0,17.56,17.56,0,0,1,6.17,1.53.09.09,0,0,0,.08-.17,28.24,28.24,0,0,0-6.16-1.86,17.34,17.34,0,0,0-3.13-.27c-.56,0-1.12.05-1.68.1l-.32,0a26.2,26.2,0,0,0-5.76-2.12l.55-.15a27,27,0,0,1,3-.49,23,23,0,0,1,6,.09c.12,0,.16-.17,0-.19a38.23,38.23,0,0,0-6-.24,25.3,25.3,0,0,0-5,.65,27.74,27.74,0,0,0-3.65-.42c-7-.29-14.58,2.32-18.87,8.05S76.76,387.06,76,394a154.39,154.39,0,0,0-.77,29.07c0,.58.85.47.87-.07.26-8.22.55-16.44,1.34-24.63.36-3.8.76-7.6,1.39-11.36a33.52,33.52,0,0,1,2.76-9.36,17.11,17.11,0,0,1,6.75-7.25,22.77,22.77,0,0,1,9.57-2.95,26,26,0,0,1,9,.84,5.83,5.83,0,0,0,0,1.77,9.56,9.56,0,0,0,.44,2.19,11.44,11.44,0,0,0,.83,1.94c.37.69.84,1.3,1.25,2,.07.1.23,0,.16-.11a8.94,8.94,0,0,1-1.55-3.95,13.88,13.88,0,0,1-.24-2c0-.52,0-1,0-1.55a26.47,26.47,0,0,1,8.73,4.61c.49.39,1,.8,1.42,1.22a9.57,9.57,0,0,0-1.7,2.09,20.84,20.84,0,0,0-1.78,3.16,27.42,27.42,0,0,0-1.85,7c0,.12.18.16.19,0A20.38,20.38,0,0,1,115,380a28.14,28.14,0,0,1,1.77-2.93c.34-.48.69-1,1-1.42.2-.24.41-.5.6-.76a27.47,27.47,0,0,1,5.67,8h0a13.38,13.38,0,0,0-2.34,3.37,31,31,0,0,0-1.87,4,66.28,66.28,0,0,0-2.39,8.16c0,.12.16.16.19,0a34.32,34.32,0,0,1,2.83-8c.6-1.25,1.23-2.48,1.9-3.7a35.66,35.66,0,0,0,1.88-3.5,25.68,25.68,0,0,1,2.28,9.26c0,.13.2.11.19,0a32.33,32.33,0,0,0-4.49-14.22c1.22.52,2.45,1,3.63,1.66A20.65,20.65,0,0,1,130,382.8C130.11,382.88,130.23,382.73,130.14,382.65Z" style="fill:#263238"></path><path d="M115.47,383.39c-.6,2-1.36,3.89-1.9,5.89a22.56,22.56,0,0,0-.88,5.88s.09.06.09,0a57.57,57.57,0,0,1,2.87-11.71A.1.1,0,1,0,115.47,383.39Z" style="fill:#263238"></path><path d="M128.14,378.49a11.23,11.23,0,0,0-2.65-1.89,18.33,18.33,0,0,0-3.07-1.08c-.11,0-.15.16,0,.18a12.25,12.25,0,0,1,3,1.22,22.28,22.28,0,0,1,2.72,1.67C128.12,378.64,128.2,378.55,128.14,378.49Z" style="fill:#263238"></path><path d="M94.17,354.63s1.92-23.4,19.31-31c14.53-6.34,22.84,10,12.58,20C117.75,351.71,104.43,348.06,94.17,354.63Z" style="fill:#FFC727"></path><path d="M122.84,328.18a72.93,72.93,0,0,0-7.74,3.66,56.78,56.78,0,0,0-6,4c.28-.59.54-1.21.83-1.79.45-.91.94-1.79,1.47-2.65a25,25,0,0,1,3.84-4.85c.09-.08-.06-.22-.14-.13a38.51,38.51,0,0,0-4,4.7,29.9,29.9,0,0,0-1.65,2.64,10.77,10.77,0,0,0-1.17,2.7l-.19.14a57,57,0,0,0-8.31,8.13c.05-.23.1-.46.16-.67.32-1.15.68-2.28,1-3.4a29,29,0,0,1,3.15-6.83c.06-.1-.11-.2-.17-.09a53.06,53.06,0,0,0-3.64,6.66,24.7,24.7,0,0,0-1.2,3.45,15,15,0,0,0-.57,2.35c-.76,1-1.5,1.93-2.21,2.93-7.46,10.63-11.21,23.49-12.11,36.36A113.7,113.7,0,0,0,84,397a72.19,72.19,0,0,0,1,11.56c0,.24.43.17.42-.06-.08-3.38-.43-6.75-.5-10.13s.06-6.79.33-10.16a94.24,94.24,0,0,1,3.79-19.91,71.36,71.36,0,0,1,8.85-18.72c.73-.15,1.46-.34,2.18-.53s1.74-.45,2.6-.69a25.4,25.4,0,0,0,4.85-1.78c.11,0,0-.22-.1-.16a15.55,15.55,0,0,1-4.92,1.7c-1.36.27-2.77.45-4.14.76a65.39,65.39,0,0,1,4.05-5.32,29.93,29.93,0,0,0,9.89-.74,40.72,40.72,0,0,0,5.07-1.57c1.74-.67,3.39-1.54,5.11-2.26a.09.09,0,1,0-.08-.17,29.24,29.24,0,0,1-10,3.29,62.79,62.79,0,0,1-9.38.77c1.23-1.42,2.51-2.8,3.87-4.1,4.57-4.35,10-8.35,16-10.43C123,328.32,123,328.13,122.84,328.18Z" style="fill:#263238"></path><path d="M108.68,328.25a27.69,27.69,0,0,0-2.13,3.12A16.34,16.34,0,0,0,105,335s0,.06.07,0c.58-1.14,1.07-2.33,1.65-3.48a18,18,0,0,1,2.08-3.16C108.9,328.29,108.76,328.15,108.68,328.25Z" style="fill:#263238"></path><path d="M124.86,336a18.32,18.32,0,0,1-3.57,1.49,32.35,32.35,0,0,1-3.63,1c-.06,0,0,.11,0,.1a17.29,17.29,0,0,0,3.76-.82A30.77,30.77,0,0,0,125,336.2C125.07,336.15,125,336,124.86,336Z" style="fill:#263238"></path><path d="M80.65,350.42c-.11,1-2.63-8.5-17.34-16.94C50,325.82,34,305.89,47.11,293.29,57.68,283.13,85.53,305.29,80.65,350.42Z" style="fill:#FFC727"></path><path d="M90.78,404.92a261.23,261.23,0,0,0-2.34-29.58,133,133,0,0,0-6.21-26.47c-1.1-3.09-2.35-6.14-3.7-9.13a21.46,21.46,0,0,0-.06-3.5c-.08-1.5-.21-3-.35-4.49s-.29-3-.47-4.47-.49-3-.55-4.46a.1.1,0,1,0-.19,0,31.13,31.13,0,0,1,.53,4.73c.11,1.44.19,2.89.24,4.33s0,2.9,0,4.35c0,.52,0,1.07,0,1.63-1.38-2.92-2.87-5.8-4.47-8.6,1-6.1-.3-12.47-1.54-18.44,0-.12-.21-.06-.19.06a51.61,51.61,0,0,1,1,9.45c.06,2.5-.06,5-.07,7.51-.35-.6-.7-1.2-1.06-1.79Q68.45,321.4,65.2,317a14.37,14.37,0,0,0-.15-4.34A33.28,33.28,0,0,0,64,307.86q-.7-2.34-1.63-4.6c-.64-1.54-1.49-3-2.1-4.56a.09.09,0,1,0-.17.08,22.75,22.75,0,0,1,1.84,4.61,42.83,42.83,0,0,1,1.2,4.58c.31,1.55.57,3.1.78,4.66.15,1,.24,2.11.42,3.16a113.38,113.38,0,0,0-10.3-12c-.09-.09-.21.05-.13.14a135.93,135.93,0,0,1,14.95,20.34l.47.82c-.81-.51-1.74-.91-2.5-1.33q-2.13-1.18-4.29-2.36t-4.16-2.28c-.72-.39-1.42-.81-2.15-1.18a16.79,16.79,0,0,1-2.49-1.38c-.11-.08-.23.09-.11.15,1.41.78,2.67,1.94,4,2.81s2.77,1.72,4.2,2.52c2.62,1.46,5.46,2.51,8,4,1.79,3.12,3.43,6.33,5,9.59-1.56-1-3.16-2-4.78-2.86-1-.58-2.08-1.15-3.14-1.71a15.87,15.87,0,0,1-3-1.79.1.1,0,0,0-.14.14,28.28,28.28,0,0,0,5.65,3.93c1.89,1.1,3.8,2.17,5.77,3.13q2.35,5.17,4.25,10.53c6.2,17.53,8.47,36.14,9.56,54.62.32,5.51.49,11,.56,16.53s-.23,11-.21,16.53c0,.16.26.2.29,0,.66-4.89.77-9.86,1-14.78S90.89,409.92,90.78,404.92Z" style="fill:#263238"></path><path d="M64.05,325.56a70.44,70.44,0,0,1-7.81-4.05,79.42,79.42,0,0,1-7.42-4.71s-.09,0,0,.07a62.72,62.72,0,0,0,7.12,5A72.8,72.8,0,0,0,64,325.72C64.07,325.77,64.17,325.6,64.05,325.56Z" style="fill:#263238"></path><path d="M68.32,305.74c-.22-.85-.49-1.69-.78-2.53a.09.09,0,0,0,0-.1L67,301.7a.67.67,0,0,0-.07-.17c0-.09-.07-.18-.11-.27s0,0,0,0,.09.33.14.49A1.38,1.38,0,0,0,67,302a70.87,70.87,0,0,1,2.18,10c0,.1.18.11.17,0A34.18,34.18,0,0,0,68.32,305.74Z" style="fill:#263238"></path><polygon points="106.32 408.47 105.27 420.91 102.06 458.85 67.64 458.85 64.43 420.91 63.38 408.47 106.32 408.47" style="fill:#37474f"></polygon><polygon points="106.32 408.47 105.27 420.91 64.43 420.91 63.38 408.47 106.32 408.47" style="fill:#263238"></polygon><rect x="60" y="403.48" width="49.69" height="11.93" style="fill:#37474f"></rect></g></svg>