<?xml version="1.0" encoding="utf-8"?>
<!-- Generator: Adobe Illustrator 16.0.0, SVG Export Plug-In . SVG Version: 6.00 Build 0)  -->
<!DOCTYPE svg PUBLIC "-//W3C//DTD SVG 1.1//EN" "http://www.w3.org/Graphics/SVG/1.1/DTD/svg11.dtd">
<svg version="1.1" id="e281c6c1-c124-4cbc-b58b-d47b44bee57f"
	 xmlns="http://www.w3.org/2000/svg" xmlns:xlink="http://www.w3.org/1999/xlink" x="0px" y="0px" width="883.025px" height="802px"
	 viewBox="0 0 883.025 802" enable-background="new 0 0 883.025 802" xml:space="preserve">
<path fill="#EAE4E6" d="M883.025,401c0.12,74.851-20.81,148.227-60.4,211.75c-1.37,2.2-2.77,4.39-4.18,6.56
	c-2.62,4.03-5.311,8.011-8.07,11.94c0,0.01-0.01,0.01-0.02,0.02c-1.65,2.36-3.341,4.7-5.04,7.021c-2.181,2.96-4.4,5.9-6.66,8.79
	c-0.25,0.33-0.51,0.66-0.771,0.99c-3.949,5.05-8.02,10-12.21,14.85c-0.45,0.53-0.909,1.05-1.38,1.58
	c-0.71,0.83-1.439,1.65-2.17,2.47c-21.838,24.647-46.624,46.515-73.8,65.11c-3.62,2.49-7.287,4.913-11,7.27
	c-0.92,0.591-1.84,1.17-2.771,1.75c-0.279,0.19-0.56,0.36-0.84,0.53c-0.99,0.62-1.979,1.24-2.979,1.84
	c-1.99,1.221-4,2.42-6.011,3.601c-1.01,0.6-2.02,1.18-3.039,1.76c-0.014,0.021-0.036,0.035-0.061,0.04l-0.02,0.01
	c-2.53,1.46-5.07,2.891-7.641,4.28c-4.58,2.5-9.206,4.91-13.88,7.229c-1.16,0.58-2.33,1.15-3.5,1.721
	c-3.89,1.89-7.81,3.71-11.76,5.46c-33.337,14.835-68.558,25.011-104.67,30.24c-5.75,0.84-11.533,1.553-17.351,2.14
	c-2.22,0.22-4.439,0.43-6.659,0.61c-0.92,0.079-1.851,0.149-2.771,0.22c-10.35,0.819-20.8,1.227-31.35,1.22
	c-11.49,0-22.863-0.48-34.12-1.44c-2.39-0.199-4.776-0.42-7.16-0.659c-3.76-0.381-7.503-0.817-11.229-1.311
	c-1.881-0.24-3.754-0.5-5.62-0.78c-20.421-2.948-40.579-7.492-60.29-13.59c-11.17-3.439-22.127-7.353-32.87-11.739
	c-3.43-1.4-6.85-2.851-10.23-4.341c-3.159-1.39-6.296-2.823-9.409-4.3c-0.099-0.03-0.193-0.074-0.28-0.13
	c-0.69-0.32-1.38-0.65-2.07-0.979c-17.157-8.229-33.703-17.677-49.51-28.271c-5.07-3.39-10.053-6.894-14.95-10.51
	c-3.95-2.91-7.843-5.894-11.68-8.95c-19.115-15.192-36.805-32.096-52.85-50.5c-1.13-1.29-2.24-2.58-3.35-3.88
	c-0.86-1.01-1.71-2.021-2.55-3.04c-4.5-5.38-8.85-10.88-13.05-16.5c-0.58-0.771-1.15-1.55-1.72-2.33
	c-2.68-3.61-5.29-7.273-7.83-10.99c-1.92-2.79-3.803-5.606-5.65-8.45c-94.281-145.382-84.562-334.867,24.1-469.84
	c2.41-2.99,4.864-5.943,7.36-8.86C250.605,54.55,359.945,0,482.025,0c142.729,0,268.05,74.57,339.1,186.88
	c3.7,5.82,7.24,11.747,10.62,17.78C865.471,264.595,883.136,332.228,883.025,401z"/>
<path fill="#B3043D" d="M676.205,715.75c-5.37,14.88-10.743,29.76-16.12,44.64c-1.16,0.58-2.33,1.15-3.5,1.721
	c-3.89,1.89-7.81,3.71-11.76,5.46c-0.515-1.341-0.809-2.756-0.87-4.19c-0.21-5.97,2.49-11.6,3.95-17.42
	c0.05-0.17,0.09-0.35,0.13-0.52c2.028-8.619,1.092-17.67-2.66-25.69c-2.26-4.78-5.5-9.13-6.91-14.23
	c-3.109-11.279,5.13-24.34,16.66-26.38c11.521-2.05,23.75,7.37,24.71,19.04C680.335,704.19,678.255,710.08,676.205,715.75z"/>
<path fill="#B3043D" d="M653.535,756.37c-1.88-3.47-3.757-6.94-5.63-10.41c-4.79-8.88-9.57-17.75-14.44-26.59
	c-1.3-2.36-2.62-4.72-4.01-7.061c-3.488-6.144-7.607-11.908-12.29-17.199c-1.07-1.19-2.2-2.341-3.37-3.431
	c-0.729-0.699-1.479-1.38-2.25-2.029c-4.35-3.7-10.22-8.67-16.34-6.69c-1.545,0.529-3.032,1.213-4.44,2.04
	c-1.609,0.91-3.18,1.93-4.75,2.83c-3.02,1.74-6.053,3.446-9.1,5.12c-1.37,0.76-2.747,1.513-4.13,2.26
	c-1.83,0.99-3.663,1.97-5.5,2.94c-0.94,0.5-1.89,0.979-2.84,1.46c-1.9,0.96-3.8,1.92-5.61,3.02c-3.597,2.167-6.722,5.033-9.189,8.43
	c-0.48,0.66-0.94,1.341-1.36,2.04c-0.551,0.905-1.052,1.841-1.5,2.801c-0.311,0.649-0.6,1.3-0.86,1.96
	c-2.458,6.323-2.802,13.273-0.979,19.81v0.01c0.12,0.45,0.25,0.891,0.399,1.33c0.24,0.74,0.511,1.48,0.811,2.2
	c2.09,5.08,5.649,8.9,9.46,12.68c0.4,0.391,0.81,0.79,1.21,1.181c5.04,4.92,10.104,9.813,15.19,14.68
	c6.09,5.82,12.159,11.71,18.359,17.44c18.606-5.198,36.805-11.756,54.45-19.62c3.95-1.75,7.87-3.57,11.76-5.46
	C655.595,760.18,654.565,758.27,653.535,756.37z"/>
<path fill="#B3043D" d="M580.372,659.282l-8.226-12.759c-0.84-0.761-2.136-0.696-2.896,0.143c-0.196,0.217-0.344,0.473-0.433,0.75
	l-6.494,19.241c-4.594,1.339-8.938,3.424-12.855,6.171l-7.383-12.966c-0.802-0.8-2.101-0.799-2.9,0.003
	c-0.215,0.216-0.379,0.477-0.48,0.763l-4.271,17.329c-13.439,20.246-7.922,47.554,12.323,60.993
	c20.246,13.44,47.554,7.923,60.993-12.323c13.44-20.246,7.923-47.554-12.323-60.993C590.85,662.595,585.743,660.44,580.372,659.282
	L580.372,659.282z"/>
<path fill="#FFFFFF" d="M576.238,714.118c-1.828,0.978-4.103,0.292-5.084-1.533c-0.141-0.262-0.043-0.587,0.219-0.727
	c0.261-0.14,0.586-0.042,0.727,0.219c0.7,1.306,2.326,1.796,3.631,1.096c1.306-0.701,1.796-2.326,1.095-3.632l0,0
	c-0.14-0.261-0.042-0.586,0.22-0.727c0.261-0.14,0.586-0.042,0.726,0.22C578.749,710.861,578.063,713.136,576.238,714.118z"/>
<ellipse transform="matrix(-0.4728 -0.8812 0.8812 -0.4728 220.7485 1541.6168)" fill="#FFFFFF" cx="571.528" cy="704.774" rx="1.65" ry="4.291"/>
<path fill="#FFFFFF" d="M550.112,707.589c1.065-5.166,6.116-8.49,11.282-7.425c0.559,0.115,1.106,0.28,1.635,0.493
	c1.822-5.572-1.217-11.566-6.789-13.389c-5.572-1.823-11.567,1.217-13.39,6.789s1.218,11.567,6.79,13.39l0,0
	C549.797,707.498,549.954,707.546,550.112,707.589z"/>
<circle fill="#3F3D56" cx="553.283" cy="700.084" r="3.651"/>
<path fill="#FFFFFF" d="M575.389,694.448c1.065-5.166,6.116-8.49,11.282-7.425c0.559,0.115,1.105,0.28,1.635,0.493
	c1.822-5.572-1.217-11.566-6.789-13.39c-5.572-1.822-11.567,1.218-13.39,6.79s1.218,11.566,6.79,13.39l0,0
	C575.072,694.357,575.229,694.404,575.389,694.448z"/>
<circle fill="#3F3D56" cx="579.9" cy="686.739" r="3.651"/>
<rect x="583.72" y="692.575" transform="matrix(-0.7004 0.7137 -0.7137 -0.7004 1502.6454 756.1829)" fill="#FFFFFF" width="17.801" height="1.764"/>
<rect x="586.224" y="697.24" transform="matrix(-0.8462 0.5328 -0.5328 -0.8462 1470.7067 971.8071)" fill="#FFFFFF" width="17.801" height="1.763"/>
<rect x="541.537" y="715.211" transform="matrix(-0.982 0.1891 -0.1891 -0.982 1226.3596 1315.1741)" fill="#FFFFFF" width="17.801" height="1.763"/>
<rect x="544.04" y="719.877" transform="matrix(-0.9118 0.4106 -0.4106 -0.9118 1353.0815 1150.886)" fill="#FFFFFF" width="17.801" height="1.763"/>
<path fill="#B3043D" d="M45.953,445.087c-34.19-30.771-54.893-79.705-42.17-123.908c28.712,40.961,70.987,70.446,119.346,83.238
	c18.667,4.865,39.938,8.334,51.294,23.928c7.067,9.703,8.708,22.525,7.035,34.411c-1.673,11.887-6.349,23.112-10.982,34.186
	l0.245,2.986C125.57,491.143,80.144,475.857,45.953,445.087z"/>
<path fill="#FFFFFF" d="M4.738,321.318c8.69,36.657,29.146,70.775,57.851,95.261c6.206,5.294,12.962,10.123,20.541,13.246
	c7.41,2.987,15.485,3.936,23.386,2.746c7.389-0.961,14.835-2.8,22.33-1.947c7.899,0.897,14.498,5.324,19.108,11.697
	c5.641,7.797,8.143,17.156,10.272,26.395c2.364,10.257,4.657,20.947,11.428,29.33c0.82,1.016-0.804,2.229-1.623,1.215
	c-11.782-14.584-10.17-34.772-18.703-50.888c-3.981-7.521-10.253-13.886-18.892-15.466c-7.554-1.381-15.235,0.508-22.708,1.546
	c-7.847,1.09-15.438,0.826-22.967-1.833c-7.701-2.72-14.66-7.296-20.974-12.407c-14.231-11.699-26.535-25.562-36.459-41.083
	c-11.425-17.65-19.747-37.125-24.605-57.582C2.423,320.282,4.439,320.06,4.738,321.318L4.738,321.318z"/>
<path fill="#FFFFFF" d="M52.839,409.112c-9.979,8.814-24.874,9.103-35.186,0.68c-1.007-0.829,0.233-2.434,1.242-1.604
	c9.591,7.864,23.482,7.567,32.729-0.699C52.597,406.621,53.807,408.249,52.839,409.112L52.839,409.112z"/>
<path fill="#FFFFFF" d="M102.833,433.552c0.933-13.145-3.124-26.158-11.36-36.445c-0.817-1.019,0.807-2.232,1.623-1.215
	c8.551,10.721,12.745,24.272,11.744,37.949C104.744,435.144,102.737,434.849,102.833,433.552z"/>
<path fill="#FFFFFF" d="M18.555,361.036c4.496-2.563,7.402-7.215,7.733-12.38c0.08-1.304,2.086-1.007,2.007,0.288
	c-0.392,5.702-3.585,10.839-8.525,13.715c-0.453,0.317-1.074,0.228-1.419-0.204C18.018,362.006,18.109,361.373,18.555,361.036
	L18.555,361.036z"/>
<path fill="#B3043D" d="M146.569,258.991c-0.027,0.815-0.053,1.631-0.066,2.458c-0.3,10.968,0.291,21.943,1.767,32.816
	c0.101,0.842,0.216,1.695,0.34,2.533c3.837,26.157,12.497,51.375,25.54,74.371c5.199,9.146,11.085,17.883,17.609,26.136
	c9.01,11.396,19.687,23.037,24.271,36.354c0.494,1.384,0.901,2.797,1.221,4.231l-42.906,61.508c-0.167,0.091-0.322,0.192-0.49,0.283
	l-1.601,2.534c-0.366-0.402-0.737-0.827-1.104-1.229c-0.213-0.232-0.417-0.479-0.63-0.711c-0.139-0.16-0.278-0.319-0.413-0.455
	c-0.046-0.053-0.092-0.106-0.125-0.149c-0.135-0.136-0.246-0.276-0.366-0.402c-2.081-2.37-4.149-4.758-6.205-7.165
	c-0.014-0.01-0.014-0.01-0.019-0.033c-15.613-18.381-29.828-38.227-40.58-59.6c-0.323-0.643-0.661-1.295-0.965-1.967
	c-4.792-9.66-8.788-19.696-11.945-30.008c-1.711-5.652-3.134-11.387-4.266-17.183c-2.893-14.981-3.412-30.324-1.538-45.466
	c3.741-30.186,17.094-58.838,40.655-77.452C145.358,259.92,145.952,259.457,146.569,258.991z"/>
<path fill="#FFFFFF" d="M147.253,259.674c-15.132,34.5-19.339,74.059-11.163,110.891c1.768,7.963,4.254,15.887,8.425,22.943
	c4.118,6.847,9.995,12.465,17.019,16.272c6.479,3.682,13.531,6.697,19.001,11.89c5.766,5.473,8.371,12.979,8.214,20.844
	c-0.191,9.622-3.828,18.602-7.69,27.259c-4.288,9.612-8.894,19.529-8.534,30.299c0.043,1.306-1.984,1.297-2.027-0.007
	c-0.626-18.737,12.815-33.887,15.706-51.892c1.349-8.401,0.173-17.26-5.773-23.722c-5.2-5.651-12.47-8.767-19.062-12.438
	c-6.921-3.854-12.824-8.636-17.234-15.291c-4.511-6.809-7.313-14.652-9.276-22.535c-4.319-17.909-5.796-36.385-4.376-54.752
	c1.504-20.972,6.585-41.532,15.022-60.79C146.029,257.453,147.772,258.49,147.253,259.674L147.253,259.674z"/>
<path fill="#FFFFFF" d="M132.801,358.733c-13.274,1.03-25.341-7.708-28.502-20.642c-0.306-1.268,1.651-1.802,1.957-0.532
	c2.923,12.053,14.193,20.18,26.553,19.147C134.108,356.598,134.094,358.626,132.801,358.733z"/>
<path fill="#FFFFFF" d="M158.005,408.347c8.659-9.935,13.254-22.767,12.872-35.939c-0.039-1.305,1.988-1.297,2.027,0.006
	c0.373,13.708-4.438,27.053-13.471,37.371C158.572,410.768,157.148,409.324,158.005,408.347L158.005,408.347z"/>
<path fill="#FFFFFF" d="M134.373,299.705c5.133,0.661,10.254-1.304,13.628-5.229c0.849-0.993,2.272,0.452,1.429,1.438
	c-3.747,4.317-9.389,6.496-15.064,5.818c-0.552-0.02-0.995-0.465-1.01-1.017C133.36,300.157,133.814,299.706,134.373,299.705
	L134.373,299.705z"/>
<path fill="#B3043D" d="M538.521,263.093c5.96-32.965-3.945-70.371-30.984-90.146c1.738,36.388-9.45,72.218-31.587,101.151
	c-8.577,11.127-19.275,22.611-18.859,36.654c0.259,8.738,5.033,16.852,11.297,22.95c6.265,6.097,13.964,10.475,21.57,14.784
	l1.19,1.829C513.224,325.118,532.561,296.058,538.521,263.093z"/>
<path fill="#FFFFFF" d="M507.048,173.454c11.46,25.249,14.672,53.467,9.181,80.646c-1.078,5.872-3.076,11.537-5.918,16.787
	c-2.935,5.025-7.16,9.172-12.239,12.011c-4.683,2.742-9.79,5.005-13.725,8.838c-4.015,4.029-6.119,9.579-5.784,15.257
	c0.23,7.005,2.964,13.51,5.858,19.777c3.214,6.959,6.662,14.137,6.502,21.983c-0.02,0.951,1.457,0.925,1.477-0.024
	c0.278-13.651-9.654-24.555-11.93-37.64c-1.062-6.105-0.289-12.567,3.979-17.33c3.732-4.164,8.997-6.502,13.763-9.238
	c4.995-2.697,9.255-6.576,12.405-11.298c3.101-5.088,5.313-10.667,6.541-16.498c2.976-13.083,3.876-26.551,2.668-39.913
	c-1.294-15.258-5.188-30.182-11.516-44.126C507.919,171.825,506.658,172.597,507.048,173.454L507.048,173.454z"/>
<path fill="#FFFFFF" d="M518.512,245.453c9.676,0.624,18.38-5.854,20.561-15.302c0.21-0.927-1.22-1.297-1.431-0.37
	c-2.015,8.805-10.144,14.83-19.154,14.195C517.54,243.911,517.569,245.388,518.512,245.453z"/>
<path fill="#FFFFFF" d="M500.629,281.821c-6.4-7.152-9.868-16.454-9.715-26.05c0.016-0.95-1.46-0.925-1.477,0.024
	c-0.141,9.986,3.488,19.658,10.164,27.086C500.238,283.589,501.262,282.525,500.629,281.821L500.629,281.821z"/>
<path fill="#FFFFFF" d="M516.808,202.483c-3.731,0.53-7.479-0.853-9.974-3.678c-0.628-0.715-1.65,0.35-1.027,1.061
	c2.77,3.108,6.898,4.642,11.025,4.094c0.402-0.019,0.72-0.348,0.727-0.75C517.55,202.802,517.215,202.479,516.808,202.483
	L516.808,202.483z"/>
<path fill="#B3043D" d="M397.594,200.828c0.379,0.458,0.758,0.915,1.134,1.385c5.065,6.181,9.62,12.763,13.619,19.681
	c0.317,0.53,0.632,1.072,0.934,1.61c9.457,16.771,15.719,35.152,18.466,54.208c1.086,7.584,1.594,15.24,1.519,22.901
	c-0.104,10.58-1.06,22.043,2.24,31.755c0.333,1.017,0.729,2.012,1.185,2.98l52.135,16.276c0.137-0.022,0.271-0.033,0.408-0.055
	l2.052,0.745c0.031-0.395,0.056-0.805,0.087-1.2c0.02-0.229,0.027-0.461,0.047-0.69c0.009-0.154,0.018-0.308,0.034-0.446
	c0.003-0.051,0.006-0.103,0.006-0.142c0.017-0.139,0.018-0.269,0.031-0.395c0.142-2.292,0.267-4.59,0.376-6.893
	c0.004-0.012,0.004-0.012-0.004-0.027c0.791-17.546,0.124-35.312-3.219-52.412c-0.101-0.515-0.197-1.041-0.321-1.563
	c-1.55-7.7-3.726-15.26-6.507-22.604c-1.535-4.017-3.273-7.954-5.207-11.795c-5.017-9.916-11.561-18.98-19.394-26.862
	c-15.616-15.71-36.083-26.251-57.95-26.459C398.705,200.822,398.156,200.821,397.594,200.828z"/>
<path fill="#FFFFFF" d="M397.504,201.526c24.352,13.261,43.905,33.857,55.885,58.864c2.674,5.338,4.49,11.063,5.382,16.967
	c0.683,5.778-0.194,11.634-2.541,16.959c-2.088,5.009-4.803,9.89-5.637,15.319c-0.78,5.634,0.882,11.333,4.567,15.664
	c4.401,5.455,10.5,9.002,16.585,12.264c6.756,3.622,13.83,7.277,18.427,13.638c0.557,0.771,1.72-0.138,1.164-0.908
	c-7.997-11.067-22.492-13.794-32.187-22.871c-4.523-4.235-7.798-9.86-7.256-16.232c0.473-5.572,3.269-10.609,5.427-15.662
	c2.364-5.161,3.43-10.822,3.103-16.49c-0.588-5.93-2.181-11.716-4.71-17.111c-5.501-12.237-12.892-23.533-21.9-33.475
	c-10.22-11.403-22.314-20.974-35.762-28.299C397.219,199.702,396.677,201.076,397.504,201.526L397.504,201.526z"/>
<path fill="#FFFFFF" d="M450.005,252.111c8.103-5.327,11.151-15.74,7.204-24.596c-0.39-0.866-1.755-0.301-1.364,0.566
	c3.692,8.244,0.829,17.948-6.747,22.866C448.301,251.465,449.214,252.627,450.005,252.111z"/>
<path fill="#FFFFFF" d="M457.623,291.917c-9.416-1.857-17.785-7.196-23.44-14.95c-0.56-0.769-1.723,0.14-1.164,0.908
	c5.899,8.059,14.62,13.596,24.423,15.508C458.376,293.563,458.552,292.097,457.623,291.917L457.623,291.917z"/>
<path fill="#FFFFFF" d="M422.774,218.828c-2.661,2.67-6.486,3.823-10.179,3.068c-0.932-0.193-1.107,1.273-0.182,1.465
	c4.082,0.814,8.303-0.448,11.268-3.369c0.31-0.258,0.366-0.711,0.129-1.036C423.559,218.637,423.096,218.58,422.774,218.828z"/>
<path fill="#3F3D56" d="M131.274,378.015c15.03,0,27.215,12.185,27.215,27.214v0.001c-0.002,13.02-9.225,24.215-22.003,26.71v44.511
	h-17.371v-98.436H131.274z"/>
<path fill="#CACACA" d="M797.889,638.754v9.32c-3.95,5.05-8.02,10-12.21,14.85c-0.45,0.53-0.91,1.05-1.38,1.58
	c-0.71,0.83-1.439,1.65-2.17,2.47v-28.22H797.889z"/>
<path fill="#3F3D56" d="M751.648,619.314c-7.253,0.008-13.131,5.886-13.14,13.14v18.91c0.009,7.253,5.887,13.131,13.14,13.14h32.65
	c0.47-0.53,0.93-1.05,1.38-1.58c4.19-4.85,8.26-9.8,12.21-14.85c0.261-0.33,0.521-0.66,0.771-0.99c2.26-2.89,4.479-5.83,6.66-8.79
	c1.699-2.32,3.39-4.66,5.04-7.02c0.01-0.011,0.02-0.011,0.02-0.021c2.76-3.92,5.45-7.9,8.07-11.939H751.648z"/>
<path fill="#3F3D56" d="M835.719,457.454c-2.007-0.693-4.116-1.045-6.24-1.04h-5.369c-1.956,0.001-3.901,0.295-5.771,0.87
	c-8.091,2.543-13.6,10.038-13.61,18.52v157.75c0,0.591,0.03,1.17,0.08,1.74c0.087,1.013,0.258,2.016,0.511,3
	c1.699-2.32,3.39-4.66,5.04-7.02c0.01-0.011,0.02-0.011,0.02-0.021c2.76-3.92,5.45-7.9,8.07-11.939c1.41-2.171,2.81-4.36,4.18-6.561
	c9.9-15.883,18.668-32.444,26.24-49.56v-87.391C848.86,467.505,843.575,460.13,835.719,457.454z"/>
<path fill="#CACACA" d="M173.859,638.754v18.83c-4.5-5.38-8.85-10.88-13.05-16.5c-0.58-0.77-1.15-1.55-1.72-2.33H173.859z"/>
<path fill="#3F3D56" d="M204.339,619.314h-58.73c1.85,2.85,3.733,5.666,5.65,8.449c2.54,3.71,5.15,7.374,7.83,10.99
	c0.57,0.78,1.14,1.561,1.72,2.33c4.21,5.62,8.56,11.12,13.05,16.5c0.84,1.021,1.69,2.03,2.55,3.04c1.1,1.3,2.217,2.594,3.35,3.88
	h24.58c7.251-0.009,13.126-5.889,13.13-13.14v-18.91C217.465,625.202,211.59,619.323,204.339,619.314z"/>
<path fill="#3F3D56" d="M140.829,458.604c-2.769-1.436-5.841-2.187-8.96-2.189h-5.36c-2.536-0.004-5.048,0.496-7.39,1.47
	c-7.256,2.997-11.992,10.07-12,17.92v67.771c10.097,26.545,23,51.936,38.49,75.74c1.85,2.85,3.733,5.666,5.65,8.449v-151.96
	C151.253,468.576,147.235,461.95,140.829,458.604z"/>
<polygon fill="#9E616A" points="359.293,751.487 376.909,747.445 369.703,677.573 343.703,683.539 "/>
<path fill="#2F2E41" d="M375.319,690.864c-0.361-1.231-0.605-2.493-0.73-3.771c-0.146-1.509-0.441-2.999-0.88-4.45
	c-0.501-1.319-1.12-2.592-1.85-3.8c-0.351-0.64-0.721-1.279-1.051-1.93c-0.332-0.649-0.619-1.321-0.859-2.01
	c-10.311-30.45-24.7-71.83-34.681-96.051c-5.869-14.25-41.97-18.989-76.029-20.199c-4.15-0.15-8.27-0.25-12.3-0.301
	c-1.39-0.02-2.77-0.039-4.14-0.05c-3.5-0.02-6.91-0.02-10.19,0.021c-0.43,0-0.86,0-1.29,0.01c-2.39,0.021-4.707,0.054-6.95,0.1
	c-15.42,0.301-26.75,1-28.77,1.131l-17.99-11.311l-3.51-2.21l-0.37,2.21l-2.83,16.86l-4.83,28.77l12.11,3.4l7.86,2.2l46.57,13.06
	l9.9,2.78l0.06,0.02l16.67-0.029l45.58-0.08l2.201,5.83c-3.074,4.773-1.696,11.134,3.077,14.208
	c0.364,0.234,0.742,0.445,1.133,0.632l1.71,0.81l20.83,55.12c0.063,4.986,1.62,9.838,4.47,13.93c0.35,0.511,0.729,1.011,1.13,1.5
	l0.46,0.551l8.01,15.67l4.771-1.101l20.3-4.649l0.1-0.2c0.01-0.03,0.271-0.58,0.65-1.54v-0.03
	C375.249,711.994,378.769,701.145,375.319,690.864z"/>
<path fill="#2F2E41" d="M424.809,756.134c-3.176-14.066-17.153-22.895-31.22-19.719c-0.057,0.013-0.113,0.025-0.17,0.039
	l-14.07-6.35l-3.939,2.77l-16.34,11.46l-1.351,0.311l-4.38,1l6.05,26.369l65.62-15.05L424.809,756.134z"/>
<path fill="#9E616A" d="M337.769,715.474l-5.949,48.24l-0.2,1.58l-0.88,7.19c-3.431-1.4-6.851-2.851-10.23-4.341
	c-3.16-1.39-6.297-2.823-9.41-4.3v-48.359L337.769,715.474z"/>
<circle fill="#9E616A" cx="208.655" cy="347.768" r="36.073"/>
<path fill="#2F2E41" d="M341.599,733.884c-1-1.37-2.04-2.8-2.1-4.17c-0.23-4.83-0.47-9.61-0.72-14.29
	c-0.181-3.27-0.36-6.5-0.54-9.66c-0.021-0.399-0.05-0.8-0.07-1.189c-0.31-5.23,1.24-10.75,2.73-16.101
	c0.489-1.75,0.979-3.52,1.42-5.29c1.1-3.944,1.563-8.039,1.37-12.13c-2.561-32.39-14-62.85-19.131-67.979
	c-7.8-7.8-43.07-25.82-65.32-36.78c-3.95-1.95-7.49-3.67-10.39-5.07c-2.57-1.25-4.64-2.239-6.05-2.92
	c-1.08-0.51-1.78-0.84-2.02-0.96l-0.12-0.06l-8.05,0.899l-1.29,0.15l-7.1,0.8l-46.19,5.181l-7.13,0.8l-10.09,1.14l-9.11,1.021
	l-0.34,0.029l-0.06,0.341c0,0.01-0.02,0.08-0.04,0.21c-1.566,9.885-1.566,19.955,0,29.84c1.18,6.71,3.41,13.53,7.37,19.27
	c0.54,0.78,1.1,1.53,1.7,2.25c0.02,0.038,0.047,0.072,0.08,0.101c0.13,0.16,0.26,0.319,0.4,0.479v0.011
	c4.529,5.268,10.609,8.968,17.37,10.569c1,0.271,2.02,0.49,3.07,0.67c11.19,1.98,23.83,3.8,36.22,5.4
	c5.13,0.66,10.22,1.28,15.14,1.86c9.85,1.159,19.05,2.14,26.63,2.92c10.62,1.08,18.08,1.75,19.74,1.89l18.55,86.54
	c-2.997,5.069-2.111,11.534,2.14,15.61l1.52,1.47l1.76,8.24l5.8,7.76l0.729,0.979h25.591l0.14-0.17c0.09-0.12,9.09-11.68,8.48-25.45
	C343.629,736.674,342.639,735.324,341.599,733.884z"/>
<path fill="#9E616A" d="M340.9,443.849c-7.321-2.001-14.878,2.312-16.879,9.632c-0.214,0.78-0.357,1.578-0.431,2.385l-29.973,9.367
	l1.25,19.603l42.141-13.823c7.628,0.185,13.961-5.851,14.146-13.479C351.31,451.15,347.069,445.493,340.9,443.849L340.9,443.849z"/>
<path fill="#B3043D" d="M321.344,476.287l-22.4,8.479l-0.573,1.111c-2.86,5.548-9.676,7.728-15.224,4.868l0,0l0,0l-50.351,19.057
	c0,0-22.485-22.502-38.494-42.583l5.456-33.56c1.264-7.786,3.95-15.273,7.923-22.088c32.831,7.199,51.678,53.095,51.678,53.095
	l59.17-11.29L321.344,476.287z"/>
<path fill="#2F2E41" d="M203.528,381.913c-9.031,2.439-18.987-0.803-26.035-6.955c-7.048-6.151-11.457-14.867-13.997-23.87
	c-1.86-6.593-2.743-13.913,0.193-20.103c2.936-6.19,10.837-10.367,16.933-7.24c-3.761-4.381-1.882-11.627,2.51-15.375
	c4.392-3.748,10.423-4.823,16.167-5.41c8.336-0.853,16.946-0.948,24.879,1.752c7.932,2.701,15.139,8.605,17.622,16.608
	c5.214,2.428,11.411,1.029,15.077-3.404c0.944,5.09-1.642,10.18-6.31,12.417l12.154-3.94c2.09,4.424-1.572,9.9-6.256,11.317
	s-9.739-0.132-14.184-2.179c-4.444-2.047-8.751-4.635-13.579-5.433s-10.498,0.753-12.731,5.107c-1.169,2.28-1.23,4.951-1.91,7.422
	c-0.679,2.471-2.399,5.034-4.954,5.236c-1.614,0.128-3.194-0.732-4.804-0.556c-2.019,0.397-3.61,1.953-4.054,3.961
	c-0.401,1.973-0.406,4.005-0.015,5.98l3.087,23.598L203.528,381.913z"/>
<path fill="#B3043D" d="M248.849,561.224l-1.91-2.87l-13.94-20.909l-0.28-0.41l4.31-22.36l1.34-6.979l2.93-15.19l-0.85-34.77
	l-0.61-24.601l-0.09-3.859l-3.09-9.42c-2.961-8.904-9.478-16.185-18-20.11l-20.8-9.52c-5.097-2.321-11.111-0.07-13.431,5.028
	c-0.093,0.205-0.179,0.412-0.259,0.622c-2.85,0.39-15.22,2.47-25.71,10.61c-7.349,5.591-12.479,13.605-14.48,22.62
	c-0.02,0.069-0.03,0.14-0.05,0.21c-1.39,6.21-2.43,16.01-3.1,29.29c-0.45,8.779-0.733,19.066-0.85,30.859
	c-0.187,19.658,0.919,39.308,3.31,58.82c0.23,1.86,0.47,3.71,0.72,5.57c0.21,1.56,1.71,3.05,3.16,4.479
	c1.33,1.311,2.7,2.67,2.89,3.9c0.17,1.08-0.52,2.21-1.34,3.39c-0.1,0.15-0.21,0.3-0.31,0.45c-1.02,1.45-2.07,2.96-1.8,4.55
	c0.63,3.58,1,7.22,1.35,10.74c0.391,4.847,1.092,9.663,2.1,14.42c0.35,1.46,0.75,2.93,1.2,4.399c1.05,3.45,2.32,6.891,3.56,10.25
	c1.07,2.921,2.18,5.921,3.12,8.881c0.18,0.55,0.35,1.09,0.51,1.63l0.08,0.28l0.29,0.05h0.02c0.394-0.703,0.863-1.36,1.4-1.96
	c0.024-0.038,0.054-0.072,0.09-0.101c0.14-0.17,0.3-0.35,0.48-0.54c2.19-2.39,6.95-6.68,17.37-13.91
	c2.33-1.609,4.94-3.359,7.86-5.279c10.71-7.01,25.67-16.141,46.57-27.931c5.24-2.96,10.863-6.09,16.87-9.39L248.849,561.224z"/>
<path fill="#2F2E41" d="M361.019,781.204c-4.905-4.927-11.577-7.688-18.529-7.67l-10.87-8.24l-1.43-1.09l-9.681,3.94
	c3.38,1.489,6.8,2.939,10.23,4.34c10.729,4.38,21.687,8.293,32.87,11.739C362.823,783.153,361.957,782.144,361.019,781.204z"/>
<path fill="#3F3D56" d="M480.492,313.628V15.709h-10.423v297.919c-29.515,2.693-52.11,27.441-52.113,57.078v15.634h36.479
	c-0.007,11.513,9.32,20.851,20.833,20.857s20.851-9.32,20.857-20.833v-0.024h36.479v-15.634
	C532.602,341.069,510.006,316.322,480.492,313.628z"/>
<polygon fill="#FFB6B6" points="602.45,750.806 588.836,744.295 607.537,687.39 627.63,697 "/>
<path fill="#FFB6B6" d="M693.719,741.634c-3.96,2.47-7.97,4.87-12.03,7.2v0.03l-0.06,0.01l-0.02,0.01l-1.54,0.38l-2.21-5.84
	l-5.101-13.47l-13.899-36.7l21.609-5.33l1.22,4.95l9.141,37.07l2.62,10.6L693.719,741.634z"/>
<path fill="#FFB6B6" d="M638.604,503.473c4.038,6.559,12.57,8.698,19.226,4.823c0.644-0.39,1.254-0.832,1.824-1.322l43.041,24.7
	l-1.869-25.355L660.24,486.75c-4.542-4.563-11.593-5.48-17.151-2.233c-6.443,3.868-8.53,12.228-4.661,18.67
	C638.485,503.282,638.544,503.378,638.604,503.473z"/>
<path fill="#B3043D" d="M684.191,522.373l7.607,4.637l34.17,20.836c9.433,5.902,21.863,3.039,27.766-6.394l0,0l0.011-0.018
	c2.53-4.168,3.425-9.126,2.513-13.916l-15.187-75.873c-2.152-11.427-13.16-18.944-24.586-16.792
	c-1.036,0.195-2.056,0.468-3.051,0.815c-9.981,3.508-15.519,14.168-12.647,24.351l15.881,53.846l-24.342-11.349L684.191,522.373z"/>
<path fill="#2F2E41" d="M824.299,597.184c-0.01-0.029-0.03-0.14-0.06-0.31l-0.03-0.11c-0.07-0.359-0.15-0.76-0.24-1.199
	c-2.04-10.133-4.661-20.139-7.85-29.971c-1.89-6.021-4.393-11.831-7.47-17.34c-0.101-0.18-0.21-0.359-0.32-0.54l-0.37-0.6
	l-3.11,1.14l-0.12,0.04l-47.279,17.33l-13.67,5.01l-0.431,0.16l-2.33,9.5l-32.689-4.229l-26.64-3.45l-7.65-0.99
	c-6.699-0.873-13.469,0.979-18.79,5.14c-5.554,4.307-9.146,10.662-9.97,17.641c-0.101,0.76-0.16,1.53-0.19,2.29l-2.31,86.17v0.109
	l1.069,2.141l22.351,44.84h15.49l9.14-0.01h7.43l-15.45-39.09l0.351-0.53c2.946-4.518,3.603-10.157,1.77-15.23l1.74-5.04
	c3.61-10.409,1.9-15.409-0.26-21.729c-1.94-5.139-3.08-10.545-3.38-16.03l-0.36-7.13c9.07,1.59,17.521,3.36,25.66,5.14
	c2.72,0.591,5.413,1.187,8.08,1.79c7.59,1.69,14.92,3.32,22.1,4.681c14.54,2.77,28.47,4.46,42.78,3.409
	c0.28-0.02,0.56-0.039,0.84-0.069c3.48-0.28,6.98-0.73,10.521-1.36c1.989-0.359,3.989-0.77,6.01-1.25
	c0.56-0.14,1.13-0.28,1.689-0.42c1.556-0.41,3.054-1.011,4.46-1.79c2.002-1.117,3.864-2.467,5.551-4.02
	c0.01-0.011,0.02-0.011,0.02-0.021c2.76-3.92,5.45-7.9,8.07-11.939c1.41-2.17,2.81-4.36,4.18-6.561
	C824.629,607.264,825.389,601.724,824.299,597.184z"/>
<path fill="#2F2E41" d="M824.629,580.994c-0.15-0.641-0.34-1.29-0.54-1.92c-1.588-4.771-3.437-9.452-5.54-14.021
	c-2.359-5.2-5.189-10.77-8.56-16.8c-1.63-2.92-3.384-5.957-5.261-9.109c-0.939-1.58-1.916-3.19-2.93-4.83
	c-0.039-0.076-0.083-0.149-0.13-0.221l-0.29-0.479l-46.78,6.26l-17.42,2.33l-1.04,8.68l-0.25,2.15c-0.01,0-0.01,0,0,0.01
	l-0.699,5.86v0.01l-0.931,7.74l-0.08-0.01l-25.85-3.351l-26.64-3.45l-14.311-1.85c-6.699-0.873-13.468,0.979-18.79,5.14
	c-5.554,4.306-9.146,10.661-9.97,17.641c-0.09,0.7-0.15,1.42-0.18,2.13l-13.5,31.99c-8.079,19.131-13.224,39.373-15.261,60.04
	l-9.899,31.649l1.41,0.13l20.979,1.95l5.54,0.521l12.2-17.811c1.39-2.03,2.71-4.12,3.939-6.26c2.025-3.495,3.826-7.116,5.391-10.84
	l26.39-62.8c2.04,0.35,4.06,0.683,6.061,1c9.25,1.5,18.13,2.723,26.64,3.67c27.67,3.09,51.63,3.33,72.96,0.71
	c5.99-0.73,11.78-1.69,17.37-2.88c2.05-0.431,4.073-0.894,6.069-1.391c0.471-0.109,0.931-0.22,1.391-0.34
	c8.397-2.166,15.121-8.448,17.85-16.68C825.572,590.869,825.802,585.814,824.629,580.994z"/>
<ellipse fill="#FFB6B6" cx="725.153" cy="359.045" rx="32.358" ry="33.08"/>
<path fill="#B3043D" d="M801.989,535.424c-0.051-0.37-0.11-0.74-0.19-1.109c-0.77-4.061-2.77-8.04-4.7-11.9
	c-1.84-3.68-3.59-7.16-4.31-10.62c-0.71-3.41-0.29-6.83,0.12-10.13c0.439-3.58,0.899-7.28-0.13-10.87
	c-5.225-18.334-12.398-36.056-21.4-52.86c-4.639-15.092-17.687-26.07-33.35-28.06c0.895-1.672,1.268-3.574,1.069-5.46
	c-0.253-2.462-1.48-4.72-3.409-6.27c-1.854-1.493-4.226-2.185-6.591-1.921l-15.04,1.69c-5.019,0.63-8.592,5.186-8.01,10.21
	c0.084,0.743,0.252,1.475,0.5,2.18c-13.96,17.78-21.13,33.98-21.79,49.3v0.011c-0.08,1.77-0.069,3.541,0.03,5.31
	c0.316,5.72,1.559,11.35,3.68,16.67c2.504,6.147,5.857,11.913,9.96,17.13c0.84,1.061,1.71,2.101,2.61,3.12
	c0.84,1,1.78,2.05,2.82,3.15l2.63,4.12l2.45,3.85l13.1,30.23l6.67-0.221l0.93,6.65l0.221,1.55l4.319,15.47l0.32,1.16l5.91-2.81
	l35.26-16.74l26.36-12.52L801.989,535.424z"/>
<path opacity="0.2" enable-background="new    " d="M688.865,481.434c3.006,7.364,7.232,14.169,12.501,20.128
	c0.903,1.078,1.855,2.137,2.854,3.196l5.118,8.032c18.869-14.144,34.157-69.833,34.157-69.833l-21.29-4.141L688.865,481.434z"/>
<path fill="#FFB6B6" d="M675.976,395.215c3.877,6.659,1.747,15.193-4.804,19.251c-0.646,0.386-1.324,0.719-2.025,0.993l1.507,49.604
	l-21.48-13.522l1.862-45.031c-1.88-6.162,0.63-12.817,6.109-16.205c6.415-3.88,14.762-1.826,18.643,4.589l0,0
	C675.852,395,675.914,395.107,675.976,395.215z"/>
<path fill="#B3043D" d="M672.542,446.338l-23.623,3.359l1.016,48.918c0.12,7.096,3.906,13.623,10.007,17.249l0,0
	c7.529,4.431,17.081,3.346,23.426-2.659l55.77-53.643c8.148-7.729,8.832-20.479,1.559-29.036l0,0
	c-7.147-8.461-19.8-9.525-28.261-2.378c-0.159,0.135-0.315,0.271-0.471,0.41c-0.551,0.493-1.075,1.015-1.57,1.564l-36.825,42.363
	L672.542,446.338z"/>
<path fill="#2F2E41" d="M694.319,740.384l-0.87,0.16l-11.761,2.17l-3.829,0.71l-6.03,1.11l2.14,8.63
	c2.57-1.391,5.11-2.82,7.641-4.28l0.02-0.01l0.06-0.01v-0.03c4.061-2.32,8.07-4.72,12.03-7.2c0.28-0.17,0.561-0.34,0.84-0.53
	L694.319,740.384z"/>
<path fill="#2F2E41" d="M606.799,741.514l-14.729-7.06l-2.311-1.11l-3.689,9.061l-25.761,5.67c-3.297,0.723-5.384,3.981-4.661,7.279
	c0.431,1.964,1.8,3.591,3.661,4.351l25.17,10.27l7.99-7.189l-1.96,9.649l9.48,3.87l10.39-33.069L606.799,741.514z"/>
<path fill="#2F2E41" d="M811.741,344.699c-5.5-6.415-8.115-14.924-12.512-22.208c-4.397-7.284-12.049-13.803-20.133-12.107
	c-5.572,1.168-9.879,6.085-12.059,11.567s-2.589,11.528-2.971,17.45c0.135-12.171-7.884-23.97-18.93-27.854
	c-11.045-3.883-24.265,0.449-31.205,10.227c-6.27-5.811-15.895-6.013-22.401-0.47c-6.209,5.549-7.582,16.11-3.017,23.188
	s14.454,9.714,21.71,5.789l2.564,2.36c-1.443,5.05,1.356,11.016,6.063,12.917c3.816,1.542,9.205,1.285,10.634,5.291
	c0.998,2.799-0.867,5.787-2.853,7.937c-1.983,2.151-4.34,4.372-4.578,7.348c-0.36,4.49,4.28,7.636,8.499,8.583
	c10.171,2.285,21.457-2.426,27.319-11.402c0.113-0.173,0.236-0.346,0.368-0.52c6.647-8.5,9.505-19.362,7.901-30.033
	c-0.33-2.075,0.002-3.618,1.433-4.109c6.183-2.124,23.504,2.333,28.746,6.362c5.243,4.028,9.441,9.36,14.49,13.648
	c5.05,4.289,11.484,7.596,17.896,6.429c5.135-0.936,9.503-4.664,12.441-9.16s4.629-9.738,6.145-14.947
	C835.939,357.54,820.399,354.794,811.741,344.699z"/>
<path fill="#3F3D56" d="M708.325,541.88v190.2c-3.62,2.49-7.287,4.913-11,7.27V554.49c0-5.36-1.8-9.71-4.01-9.721h-166.49
	c-2.22,0.011-4.01,4.36-4.021,9.721v245.46c-2.22,0.22-4.439,0.43-6.659,0.609c-0.921,0.08-1.851,0.15-2.771,0.221
	c-0.53-0.98-1.05-1.971-1.57-2.971V541.88c0-1.479,0.061-2.97,0.16-4.439c0.9-12.48,5.37-21.601,10.601-21.62h175
	c0.633,0.004,1.259,0.137,1.84,0.39c4.38,1.86,7.84,10.021,8.71,20.57C708.255,538.46,708.335,540.17,708.325,541.88z"/>
<path fill="#3F3D56" d="M441.195,541.88V799.19c-0.15,0.239-0.3,0.47-0.45,0.71c-3.76-0.381-7.503-0.817-11.229-1.311v-244.1
	c0-5.36-1.91-9.71-4.261-9.721h-176.71c-2.35,0.011-4.26,4.36-4.26,9.721v169.46c-3.95-2.91-7.843-5.894-11.68-8.95V541.88
	c0-1.479,0.06-2.97,0.17-4.439c0.95-12.48,5.7-21.601,11.26-21.62h185.73c0.669,0.002,1.331,0.134,1.949,0.39
	c4.65,1.86,8.33,10.021,9.261,20.57C441.125,538.46,441.195,540.17,441.195,541.88z"/>
<polygon fill="#3F3D56" points="381.974,456.37 393.555,507.325 400.955,515.431 406.294,515.431 384.291,422.785 383.202,438.524 
	383.202,438.535 "/>
<path fill="#3F3D56" d="M420.539,518.034c-0.033-0.079-0.077-0.152-0.13-0.22c-0.106-0.241-0.26-0.459-0.45-0.641l-1.35-1.35
	l-7.101-7.11c-0.521-0.51-1.221-0.797-1.95-0.8h-0.029l-5.011,0.03l-4.31,0.03l-6.021,0.039l-41,0.261l-26.949,0.17
	c-1.519,0.019-2.742,1.251-2.75,2.77c0.004,0.404,0.093,0.803,0.26,1.17l0.52,1.11l1.091,2.33l1.42,3.05l0.699,1.5
	c0.456,0.975,1.435,1.599,2.511,1.601h88.01c1.56-0.03,2.8-1.318,2.77-2.878C420.762,518.73,420.684,518.37,420.539,518.034
	L420.539,518.034z"/>
<path opacity="0.17" enable-background="new    " d="M326.78,518.872l0.695,1.505c0.461,0.972,1.438,1.593,2.513,1.599h88.014
	c1.557-0.028,2.796-1.313,2.768-2.87c-0.007-0.367-0.086-0.73-0.231-1.067c-0.031-0.08-0.074-0.154-0.128-0.221L326.78,518.872z"/>
<polygon opacity="0.17" enable-background="new    " points="383.202,438.524 383.202,438.535 402.044,515.431 406.294,515.431 
	384.291,422.785 "/>
<path fill="#3F3D56" d="M412.759,223.334l-2.76-0.37c-0.758-0.099-1.523,0.106-2.13,0.57l-1.65,1.27l-18.37,22.98
	c-0.606,0.469-1.002,1.159-1.1,1.92l-1.03,7.82l-25.64,195.09c-0.092,0.723,0.091,1.454,0.51,2.05l12.08,33.3l0.36,0.521
	l0.779,1.109c0.402,0.564,0.99,0.968,1.66,1.141l1.75,0.439c0.805,0.201,1.656,0.049,2.34-0.42c0.688-0.461,1.14-1.198,1.24-2.02
	l3.13-23.78v-0.01l2-15.261l1.69-12.869v-0.011l27.64-210.229c0.208-1.581-0.905-3.031-2.485-3.238L412.759,223.334z"/>
<path opacity="0.17" enable-background="new    " d="M406.215,224.805l-33.548,263.164l0.364,0.515l0.777,1.106
	c0.401,0.565,0.989,0.97,1.66,1.142l1.753,0.44c1.558,0.386,3.133-0.563,3.52-2.121c0.025-0.104,0.046-0.21,0.06-0.317
	l34.455-262.156c0.208-1.585-0.908-3.039-2.493-3.248l-2.767-0.363c-0.759-0.103-1.526,0.104-2.132,0.572L406.215,224.805z"/>
<polygon fill="#B3043D" points="405.226,232.331 387.423,257.742 366.263,418.743 377.735,441.502 "/>
<polygon fill="#3F3D56" points="578.645,456.37 567.064,507.325 559.664,515.431 554.325,515.431 576.329,422.785 577.417,438.524 
	577.417,438.535 "/>
<path fill="#3F3D56" d="M634.379,508.444l-67.94-0.431l-6.029-0.04l-4.3-0.029l-5.011-0.03h-0.04
	c-0.727,0.001-1.423,0.289-1.939,0.8l-8.46,8.46c-0.188,0.185-0.34,0.401-0.45,0.641c-0.053,0.066-0.097,0.141-0.13,0.22
	c-0.617,1.433,0.045,3.094,1.478,3.71c0.336,0.145,0.696,0.223,1.063,0.229h88.01c1.078-0.004,2.058-0.626,2.52-1.6l0.69-1.5
	l1.42-3.05l1.61-3.44c0.172-0.366,0.261-0.766,0.26-1.17C637.121,509.695,635.897,508.463,634.379,508.444z"/>
<path opacity="0.17" enable-background="new    " d="M633.839,518.872l-0.695,1.505c-0.461,0.972-1.438,1.593-2.513,1.599h-88.014
	c-1.557-0.028-2.795-1.313-2.768-2.87c0.007-0.367,0.086-0.73,0.231-1.067c0.031-0.08,0.074-0.154,0.128-0.221L633.839,518.872z"/>
<polygon opacity="0.17" enable-background="new    " points="577.417,438.524 577.417,438.535 558.575,515.431 554.325,515.431 
	576.329,422.785 "/>
<path fill="#3F3D56" d="M600.539,452.614l-26.67-202.91c-0.098-0.761-0.493-1.451-1.101-1.92l-18.359-22.98l-1.65-1.27
	c-0.611-0.463-1.38-0.667-2.14-0.57l-2.76,0.37c-1.586,0.204-2.705,1.655-2.5,3.24l0,0l27.64,210.24v0.01l1.69,12.859l2.01,15.271
	v0.02l3.12,23.761c0.101,0.823,0.557,1.563,1.25,2.02c0.68,0.469,1.528,0.621,2.33,0.42l1.75-0.439
	c0.67-0.173,1.258-0.577,1.659-1.141l0.78-1.109l0.36-0.521l12.08-33.3C600.453,454.07,600.635,453.337,600.539,452.614z"/>
<path opacity="0.17" enable-background="new    " d="M554.404,224.805l33.548,263.164l-0.364,0.515l-0.777,1.106
	c-0.401,0.565-0.989,0.97-1.66,1.142l-1.753,0.44c-1.558,0.386-3.133-0.563-3.52-2.121c-0.025-0.104-0.046-0.21-0.06-0.317
	l-34.455-262.156c-0.208-1.585,0.908-3.039,2.493-3.248l2.767-0.364c0.759-0.103,1.526,0.104,2.132,0.572L554.404,224.805z"/>
<polygon fill="#B3043D" points="555.393,232.331 573.196,257.742 594.356,418.743 582.884,441.502 "/>
<path fill="#3F3D56" d="M224.499,556.934c0.002,0.503-0.041,1.006-0.13,1.5c-0.04,0.24-0.09,0.471-0.15,0.7
	c-1.001,3.824-4.457,6.491-8.41,6.49h-37.63v89.75c0.002,1.896-0.62,3.741-1.77,5.25c-0.86-1.01-1.71-2.021-2.55-3.04
	c-4.5-5.38-8.85-10.88-13.05-16.5v-75.46h-16.8c-4.796-0.003-8.683-3.894-8.68-8.69c0.002-4.514,3.462-8.272,7.96-8.649
	c0.24-0.021,0.48-0.03,0.72-0.03h71.8C220.605,548.252,224.495,552.138,224.499,556.934z"/>
<path fill="#3F3D56" d="M824.129,556.934c0.001,3.602-2.218,6.83-5.58,8.12c-0.779,0.299-1.598,0.48-2.43,0.54
	c-0.221,0.021-0.45,0.03-0.67,0.03h-16.79v81.46c-0.25,0.33-0.511,0.66-0.771,0.99c-3.95,5.05-8.02,10-12.21,14.85
	c-2.724-1.534-4.403-4.424-4.39-7.55v-89.75h-37.641c-1.11,0.004-2.211-0.21-3.239-0.63c-2.63-1.052-4.579-3.322-5.221-6.08v-0.01
	c-0.466-1.975-0.218-4.051,0.7-5.86c-0.01-0.01-0.01-0.01,0-0.01c0.397-0.796,0.917-1.525,1.54-2.16
	c1.636-1.676,3.879-2.62,6.22-2.62h71.801c4.793-0.001,8.679,3.884,8.68,8.677V556.934z"/>
<path fill="#3F3D56" d="M823.555,389.596c-15.03,0-27.215,12.184-27.215,27.214l0,0l0,0c0.002,13.021,9.225,24.216,22.003,26.711
	v44.511h17.371v-98.436H823.555z"/>
<path fill="#9E616A" d="M348.405,488.971c-6.546-3.842-14.966-1.651-18.808,4.895c-0.41,0.697-0.757,1.43-1.038,2.188l-31.378,1.224
	l-4.228,14.616l44.609,2.284c7.316,2.168,15.004-2.006,17.172-9.321C356.549,498.734,353.932,492.167,348.405,488.971
	L348.405,488.971z"/>
<path fill="#B3043D" d="M322.63,515.754l-32.232-0.402l-4.08-0.055l-65.578-0.826c0,0-17.808-16.989-33.314-34.481l2.173-15.72
	c2.12-15.429,9.773-29.561,21.535-39.767c22.209,14.84,35.088,44.213,35.088,44.213l21.595,9.663l0,0
	c15.198,0.681,30.007,5.018,43.17,12.644l7.102,4.114L322.63,515.754z"/>
<path fill="#CCCCCC" d="M423.898,797.814h116.261c-7.931,1.159-15.934,2.076-24.011,2.75h-68.239
	C439.829,799.895,431.825,798.978,423.898,797.814z"/>
<path fill="#B3043D" d="M447.273,739.284c2.25-20.307,14.547-40.449,33.794-47.306c-7.347,20.969-7.038,43.86,0.868,64.624
	c3.079,7.997,7.335,16.57,4.648,24.707c-1.671,5.063-5.873,8.976-10.596,11.45s-9.984,3.694-15.181,4.891l-1.014,0.861
	C451.271,779.942,445.023,759.592,447.273,739.284z"/>
<path fill="#FFFFFF" d="M481.264,692.359c-11.091,12.767-17.877,28.703-19.395,45.546c-0.392,3.62-0.209,7.279,0.539,10.843
	c0.841,3.448,2.59,6.607,5.065,9.15c2.26,2.418,4.853,4.629,6.485,7.554c1.646,3.054,1.91,6.664,0.728,9.925
	c-1.354,4.055-4.083,7.382-6.865,10.542c-3.089,3.51-6.354,7.105-7.625,11.72c-0.154,0.56-1.013,0.288-0.858-0.271
	c2.212-8.028,9.914-12.675,13.521-19.928c1.683-3.384,2.355-7.296,0.688-10.822c-1.458-3.084-4.129-5.366-6.438-7.794
	c-2.451-2.446-4.266-5.454-5.286-8.763c-0.927-3.515-1.25-7.16-0.954-10.782c0.536-8.165,2.354-16.195,5.384-23.796
	c3.41-8.694,8.283-16.74,14.407-23.791C481.038,691.256,481.641,691.926,481.264,692.359L481.264,692.359z"/>
<path fill="#FFFFFF" d="M462.038,732.453c-5.765-1.318-9.726-6.619-9.356-12.521c0.018-0.248,0.233-0.435,0.481-0.417
	c0.236,0.018,0.419,0.214,0.419,0.45c-0.354,5.498,3.35,10.434,8.728,11.63C462.875,731.721,462.601,732.579,462.038,732.453
	L462.038,732.453z"/>
<path fill="#FFFFFF" d="M466.166,756.824c4.985-3.068,8.631-7.902,10.21-13.538c0.156-0.559,1.015-0.287,0.858,0.271
	c-1.654,5.862-5.458,10.885-10.652,14.066C466.086,757.926,465.674,757.125,466.166,756.824z"/>
<path fill="#FFFFFF" d="M470.509,707.631c2.09,0.959,4.521,0.803,6.471-0.415c0.491-0.31,0.904,0.492,0.416,0.799
	c-2.159,1.335-4.84,1.513-7.157,0.476c-0.231-0.082-0.36-0.329-0.294-0.565C470.021,707.688,470.272,707.558,470.509,707.631
	L470.509,707.631z"/>
<path fill="#B3043D" d="M540.485,727.401c-0.301,0.201-0.603,0.403-0.903,0.612c-4.036,2.732-7.844,5.787-11.385,9.136
	c-0.278,0.255-0.556,0.517-0.826,0.779c-8.445,8.158-15.304,17.813-20.225,28.476c-1.954,4.245-3.582,8.632-4.871,13.123
	c-1.779,6.203-3.215,13.07-6.833,18.173c-0.372,0.537-0.776,1.05-1.211,1.537l-33.308,0.445c-0.076-0.037-0.152-0.066-0.229-0.104
	l-1.329,0.078c0.051-0.236,0.108-0.479,0.158-0.716c0.028-0.138,0.064-0.275,0.094-0.412c0.021-0.092,0.043-0.183,0.057-0.267
	c0.007-0.03,0.015-0.062,0.021-0.084c0.015-0.084,0.036-0.16,0.051-0.236c0.315-1.364,0.643-2.729,0.979-4.095
	c0-0.008,0-0.008,0.007-0.016c2.465-10.425,6.156-20.521,10.999-30.078c0.148-0.283,0.296-0.573,0.46-0.857
	c2.245-4.23,4.832-8.271,7.735-12.082c1.597-2.08,3.298-4.079,5.096-5.988c4.657-4.924,10.06-9.085,16.01-12.33
	c11.861-6.467,25.659-9.068,38.478-5.386C539.837,727.205,540.158,727.299,540.485,727.401z"/>
<path fill="#FFFFFF" d="M540.416,727.825c-16.541,3.516-31.555,12.154-42.907,24.688c-2.492,2.655-4.55,5.687-6.098,8.982
	c-1.404,3.259-1.91,6.835-1.465,10.355c0.349,3.291,1.087,6.617,0.63,9.936c-0.523,3.43-2.486,6.472-5.395,8.362
	c-3.521,2.423-7.704,3.437-11.828,4.284c-4.579,0.942-9.351,1.849-13.144,4.768c-0.46,0.354-0.981-0.381-0.522-0.733
	c6.6-5.079,15.547-4.151,22.793-7.771c3.381-1.688,6.273-4.407,7.065-8.226c0.692-3.34-0.065-6.771-0.448-10.1
	c-0.484-3.429-0.122-6.924,1.056-10.18c1.375-3.364,3.313-6.47,5.729-9.184c5.344-6.196,11.629-11.514,18.625-15.758
	c7.958-4.889,16.693-8.379,25.828-10.322C540.9,726.808,540.979,727.706,540.416,727.825L540.416,727.825z"/>
<path fill="#FFFFFF" d="M500.927,748.263c-3.81-4.523-3.781-11.141,0.067-15.631c0.379-0.439,1.078,0.129,0.699,0.567
	c-3.593,4.177-3.607,10.348-0.033,14.541C502.035,748.182,501.3,748.701,500.927,748.263z"/>
<path fill="#FFFFFF" d="M489.55,770.206c5.827,0.552,11.648-1.112,16.303-4.662c0.461-0.352,0.982,0.382,0.522,0.733
	c-4.851,3.685-10.912,5.404-16.975,4.816C488.822,771.038,488.975,770.15,489.55,770.206L489.55,770.206z"/>
<path fill="#FFFFFF" d="M522.635,733.543c1.091,2.023,3.126,3.363,5.416,3.564c0.578,0.049,0.426,0.937-0.148,0.888
	c-2.528-0.233-4.775-1.705-6.001-3.929c-0.136-0.205-0.09-0.479,0.105-0.629C522.21,733.295,522.489,733.342,522.635,733.543z"/>
<circle fill="#B3043D" cx="557.763" cy="745.099" r="10.593"/>
<circle fill="#B3043D" cx="595.124" cy="719.098" r="10.593"/>
<path fill="#FFFFFF" d="M497.955,138.7c-62.31,16.39-131.35,26.36-201.55,29.09c-10.288,0.561-20.601,0.49-30.88-0.21
	c-22.59-1.9-41.94-9-63.49-12.88c-10.36-1.86-21.9-3.22-32.33-5.23c2.41-2.99,4.863-5.943,7.36-8.86
	c22.49,1.9,45.33,8.12,68.09,11.01c38.69,4.92,82.04-0.57,111.37-14.11c14.229-6.57,25.13-14.77,39.31-21.37
	c1.929-0.99,4.018-1.63,6.17-1.89c4.49-0.41,8.431,1.4,11.641,3.02c23.79,12.01,58.329,21.77,90.39,16.4
	C506.425,135.54,501.885,137.67,497.955,138.7z"/>
<path fill="#FFFFFF" d="M639.825,180.965c0.293-0.053,0.587-0.095,0.88-0.146c-1.232-0.764-2.392-1.637-3.465-2.61L639.825,180.965z
	"/>
<path fill="#FFFFFF" d="M831.745,204.66c-13.39,1.07-26.85,1.867-40.38,2.39c-10.288,0.556-20.601,0.485-30.88-0.21
	c-22.59-1.91-41.94-9-63.49-12.88c-19.75-3.55-43.75-5.26-56.29-13.14c32.41-5.61,65.99,5.81,99.41,10.06
	c27.033,3.324,54.436,1.971,81.01-4C824.825,192.7,828.365,198.626,831.745,204.66z"/>
</svg>
